<?xml version="1.0" encoding="UTF-8"?>
<svg xmlns="http://www.w3.org/2000/svg" xmlns:xlink="http://www.w3.org/1999/xlink" width="520" height="520" overflow="visible" viewBox="-160.5 -160.5 520 520">
  <defs>
    <path id="c" fill="none" stroke="#000" stroke-width="2" d="M324.51-.077s-57.201-22.394-134.5 126.07c-77.299 148.47-6.257 204.08 16.353 194.33M9.417-127.65s26.626 55.807-26.258 171.9c-31.676 69.489-79.588 134.72-105.51 153.91"/>
  </defs>
  <radialGradient id="a" cx="432.87" cy="-502.41" r="222.73" gradientTransform="matrix(-.3993 1.0198 1.0431 .4084 796.4 -136.8)" gradientUnits="userSpaceOnUse">
    <stop offset="0" stop-color="#f3f4f8"/>
    <stop offset=".6988" stop-color="#f8f9fd"/>
    <stop offset="1" stop-color="#cfd1d0"/>
  </radialGradient>
  <path fill="url(#a)" d="M10.772 326.14c-128.04-50.089-192.14-192.18-143.17-317.36 48.969-125.18 192.46-186.06 320.51-135.97.041.016.081.032.122.048 128.04 50.088 192.14 192.18 143.17 317.36-48.969 125.18-192.46 186.06-320.51 135.97-.04-.015-.081-.032-.122-.047z"/>
  <path d="M226.68 310.18c.11-.385-.037-.796-.366-1.023-.328-.229-.766-.22-1.086.019-.456.31-.978.673-1.656 1.23-1.709 1.405-2.547 2.102-2.993 2.587-.313.329-.344.837-.07 1.201.272.364.768.479 1.172.271-.05.024-.007.009.081-.035.183-.092.469-.223.774-.436.566-.394 1.216-.953 1.869-1.517.644-.555 1.334-1.13 1.868-1.685.097-.102.133-.148.178-.199.112-.116.191-.259.229-.413zm-3.328-2.042c.136-.386.005-.814-.323-1.06-.328-.244-.776-.245-1.106-.003-.18.122-.415.29-.866.668-.657.551-1.522 1.308-2.652 2.317-1.039.929-2.365 1.965-3.744 2.964-.269.191-.415.513-.385.841.03.33.231.619.53.76.941.425 1.884.868 2.87 1.325.021.008.039.016.059.022.017.007.023.01.029.012.02.008.039.016.058.022.355.111.41.026.465.014.354.016.687-.17.857-.48.172-.311.151-.69-.05-.981.024-.022.021-.018.052-.047.027-.025.063-.049.248-.205.063-.053-.006-.043.034-.087.057-.042.109-.088.155-.141.005-.006.007-.024.012-.029.019-.015.035-.031.052-.047.928-.948 2.214-2.877 3.105-4.59.295-.565.438-.89.566-1.188.012-.029.024-.057.034-.087zm-3.65 5.719c-.017.052-.102.177-.224.315.147-.196.227-.4.229-.414.003-.009.017.034-.005.099zm110.55-291.91c.591-1.485.538-3.594.258-5.973-.037-.351-.271-.65-.604-.773-.634-.226-1.382-.447-2.151-.675-.308-.09-.641-.016-.881.197-.239.213-.354.534-.302.85.093.581.183 1.154.274 1.786.242 1.665.461 2.937.632 3.872.167.91.305 1.428.49 1.836.14.309.436.518.773.545.338.028.665-.13.852-.413.147-.219.41-.622.659-1.252zm-112.91 285.15c.002-.36-.16-1.426.016-1.067-.714-1.12-1.016-.775-1.271-.867-.605.009-.957.258-1.435.579-.988.664-2.146 1.86-3.561 3.606-.42.519-.991 1.067-1.578 1.631-.22.217-.318.528-.263.833s.259.562.541.686c.093.042.126.049.116.046.529.207 1.125.457 1.735.712.342.147.737.078 1.008-.175 1.107-1.052 2.142-2.161 2.954-3.173.847-1.056 1.485-1.944 1.738-2.811zm105.16-284.73.79-3.047c.426-1.617.556-3.314.486-5.012-.022-.433-.34-.793-.768-.871-.755-.14-1.532-.276-2.364-.389-.292-.042-.587.057-.795.267s-.304.506-.259.797c.149.936.294 1.879.415 2.881l.66 5.259c.048.452.415.803.869.832.454.028.862-.275.966-.717zm-112.18 283.99c.431-1.1.674-1.885.754-2.524.017-.141.033-.248.038-.354.003-.054.015-.125.01-.198-.003-.049-.035-.159-.065-.261l-.019-.04-.018-.04c-.01-.023-.004-.015-.018-.041l-.832.412c0-.001.775-.51.75-.545-.05-.07-.102-.143-.188-.207-.171-.132-.441-.204-.663-.193-.438.022-.612.148-.926.309s-.687.376-1.104.676c-.818.588-1.821 1.426-3.109 2.542-.462.399-1.036.823-1.598 1.253-.23.184-.361.467-.351.762s.159.568.402.735c1.021.736 1.992 1.402 2.944 1.992.375.231.862.17 1.166-.147 1.277-1.346 2.28-2.73 2.827-4.131zm105.75-282.12c1.008-2.37 1.199-6.111.522-10.165-.038-.234-.119-.499-.18-.741-.099-.401-.45-.689-.864-.708-1.268-.036-2.598-.003-3.951.064-.274.017-.526.154-.69.375-.164.22-.222.502-.16.769.598 2.383 1.045 4.851 1.229 6.891.185 2.051.392 3.421.716 4.341.089.249.203.49.313.66.03.046.096.074.123.115l-.053-.121-.072-.331.033-.255.413-.543.203-.088.348-.032.128.017.029.011.156.028.105.075s.275.243.274.242c0 0 .13.186.129.185 0 0 .044.319.043.319 0 0-.038.355-.038.354 0 0-.184.298-.184.297.001 0-.086.064-.145.111.074-.033.128-.012.191-.06.551-.404 1.039-1.002 1.382-1.81zm-110.4 274.45c.375-1.083.602-2.06.717-2.773.055-.333.062-.589.064-.679.013-.345-.166-.666-.463-.839-.298-.173-.666-.168-.959.014-.191.114-.296.195-.41.275-.358.251-.871.612-1.46 1.073-1.159.906-2.61 2.152-4.147 3.478-.873.753-1.813 1.485-2.764 2.173-.227.167-.366.428-.38.71-.012.282.104.555.315.741 1.046.937 2.084 1.831 3.165 2.716.337.279.822.288 1.167.021 2.424-1.967 4.253-4.301 5.155-6.91zm-14.122 27.931c.067-.275.006-.567-.167-.792-.174-.225-.44-.358-.724-.362-.657-.032-1.303-.075-1.974-.102-.295-.017-.581.108-.77.337-.573.729-1.164 1.424-1.686 1.991-.09.097-.181.155-.375.356-.305.323-.338.817-.08 1.18s.736.492 1.142.31c.386-.169.638-.238 1.203-.502 1.034-.481 2.077-1.166 3.057-1.892.184-.125.316-.311.374-.524zm116.34-299.92c1.496-3.912 1.271-8.396-.415-12.915-.153-.411-.573-.66-1.008-.596-1.269.195-2.571.455-3.889.76-.258.059-.479.224-.608.456-.128.231-.152.506-.067.756.881 2.789 1.743 7.024 2.012 9.949l.46 4.912c.021.432.337.791.762.87.426.079.848-.146 1.022-.541l1.183-2.423c.196-.401.38-.789.548-1.228zm-105.8 261.15c.043-.177-.095-.714-.021-.545-.001-.009.014-.021.012-.029-.015-.019-.03-.036-.047-.052-.012-.05 0-.058-.024-.11-.015-.019-.029-.036-.047-.052.004-.01.009-.021.012-.029-.002-.007-.021.007-.029-.012-.001-.023-.003-.046-.006-.069-.009-.004-.019-.008-.029-.011.004-.011.008-.021.012-.029-.015-.032-.061-.032-.076-.063-.015-.019-.03-.035-.047-.052-.275-.525-.635-.995-1.175-1.198-.597-.226-1.277-.129-2.007.153-1.485.574-3.421 1.968-6.219 4.312-1.317 1.104-2.711 2.097-4.15 2.973-.229.14-.387.372-.433.637-.046.266.024.537.193.746 1.036 1.33 2.323 2.715 3.763 4.191.303.311.779.372 1.149.148 3.747-2.278 5.335-4.538 6.401-8.636.173-.665.327-1.165.476-1.559.142-.373.239-.53.31-.618.055.028.101.032.314.225.092.08.117.096.152.126.24.213.574.288.882.197s.548-.334.634-.644zm-19.272 38.6c.069-.287-.002-.59-.191-.815-.189-.227-.474-.35-.769-.332-.837.029-1.656.076-2.401.133-.032-.003-.065-.005-.099-.005-.022.001-.046.003-.069.007-.014.005-.027.012-.041.018-.022.001-.046.003-.069.006-.016.002-.033.017-.041.018.002 0-.027-.011-.028-.011-.027.01-.054.021-.081.035-.009-.005-.019-.009-.029-.012-.018.016-.035.03-.052.047-.014.006-.026.012-.041.018-.014.006-.026.012-.04.019-.004.009-.008.019-.012.028-.027.011-.054.022-.081.036-.051.032-.1.068-.144.111-.022.023-.044.049-.063.075-1.534 1.263-3.312 2.227-5.937 3.247-1.22.475-2.172.856-2.869 1.159-.33.144-.433.201-.619.294-.38.203-.572.64-.464 1.057.108.418.487.705.918.699.165-.008.365.039.771 0 3.791-.372 8.521-2.697 12.078-5.307.183-.126.316-.312.373-.525zm114.09-294.08c.781-2.152 1.164-4.582 1.13-7.344-.025-1.985-1.164-5.005-2.508-7.996-.2-.453-.719-.67-1.182-.496-1.85.747-3.758 1.637-5.668 2.647-.417.235-.59.748-.397 1.187 1.74 3.878 2.673 8.289 2.789 13.106.026 1.087.141 1.941.292 2.598.077.335.184.619.302.857.12.239.246.474.58.663.295.168.77.122.905.086.226-.059.484-.21.734-.417.476-.394.903-.944 1.415-1.729.461-.706.905-1.458 1.254-2.261.133-.301.244-.599.354-.901zm-98.035 243.99c.258-.66.153-1.413-.305-1.965-.445-.536-1.224-.83-2.083-.682-.287.051-.271.071-.342.102-.069.029-.125.074-.214.117-.176.086-.413.201-.67.342-.513.279-1.149.657-1.878 1.11-1.465.91-3.287 2.146-5.146 3.456-1.612 1.137-2.973 2.019-4.262 2.828-.354.218-.522.646-.41 1.048.479 1.755.896 3.238 1.21 4.367.294 1.055.46 1.745.521 2.184.046.304.237.564.513.7.276.134.601.125.867-.025 1.031-.555 2.048-1.181 3.126-1.897 1.644-1.094 2.789-1.95 3.616-2.98.827-1.031 1.307-2.195 1.662-3.646.567-2.313 1.358-3.399 2.247-3.684.77-.246 1.319-.787 1.548-1.375zm113.29-300.71c.099-.331.008-.689-.239-.933-1.755-1.761-3.818-3.388-6.286-4.944-.372-.252-.873-.202-1.188.12-.315.321-.356.822-.097 1.19.452.656 1.23 1.575 2.623 3.074.751.808 1.454 1.642 2.119 2.474.266.329.719.437 1.104.265.531-.243 1.033-.48 1.48-.696.23-.111.404-.309.484-.55zm-115.63 290.3c.138-.362-.219-1.586-.131-1.125-.04-.119-.215-.394-.152-.295l.011-.029c-.003-.008-.024-.004-.029-.011-.006-.012-.01-.03-.018-.041-.009-.004-.019-.008-.028-.012-.007-.014-.011-.026-.019-.04-.586-1.217-1.922-1.806-3.191-1.619-1.37.201-2.75 1.112-3.782 2.547-.102.14-.395.391-.9.755-.476.344-1.1.757-1.842 1.191-1.404.821-3.246 1.712-5.141 2.586-.391.187-.602.619-.509 1.042.513 2.617 1.056 4.958 1.567 7.057.068.271.256.496.508.614.253.118.545.117.796-.003.306-.156.656-.339.937-.506 2.21-1.313 3.496-2.133 4.415-3.305.92-1.172 1.386-2.593 2.024-4.913.331-1.204.588-2.118.814-2.769.23-.657.406-1.006.566-1.188.08-.092.218-.131.283-.124.206.019.58.16 1.158.386.608.238 1.013.386 1.431.46.201.034.516-.006.505-.004.347-.062.628-.316.727-.654zm80.271-206.24c.159-.405.146-.743.131-1.19-.014-.447-.07-.958-.197-1.554-.062-.292-.087-.501-.15-.73-.099-.383-.429-.663-.823-.696s-.768.186-.931.547c-.041.092-.142.286-.257.57-.219.547-.257 1.099-.231 1.621.025.517.049.981.429 1.477.115.151.236.175.361.276.09.105.188.208.188.208l.279.143s.022.01.029.011c.041.007.168-.001.168-.001s.197.011.198.01l.109-.024c.001 0 .128-.054.162-.071.139-.065.199-.099.266-.164.132-.133.213-.29.269-.433zm31.202-82.188c.078-.299.002-.619-.203-.852-3.265-3.915-7.58-7.549-11.027-8.78-.525-.187-.819-.304-1.175-.426-.316-.111-.668-.043-.921.177s-.368.56-.302.888c.037.178.125.34.253.468.015.018.031.036.047.052.017.017-.002.025.018.041.466.395 1.096.894 1.938 1.564 3.092 2.461 5.815 5.222 7.991 7.961.266.329.72.437 1.104.265.597-.263 1.187-.518 1.741-.762.259-.108.457-.326.536-.596zM171.076 327.3c.074-.262.031-.542-.119-.769-.149-.227-.392-.375-.661-.41-1.228-.167-2.52-.443-3.865-.842-.245-.059-.505-.015-.719.122-3.093 1.815-6.364 2.818-8.501 2.511-1.543-.223-4.099-.293-5.851-.143-.856.073-1.633.186-2.231.301-.002 0-.065.01-.221.048-.397.122-.666.494-.658.91.01.417.293.777.695.883.521.104 1.201.188 1.986.241 1.506.1 4.577.594 6.693 1.076 4.088.93 8.604-.399 13.078-3.404.185-.125.317-.312.374-.524zm112.42-287.59c1.662-4.46.956-10.287-1.521-15.06-.123-.244-.346-.421-.61-.486-.266-.065-.546-.011-.768.148-1.591 1.148-3.245 2.392-4.928 3.843-.31.265-.412.7-.253 1.075.943 2.257 1.762 4.96 2.665 8.795.351 1.492.596 2.598.832 3.447.238.86.395 1.338.738 1.799.03.042.065.095.111.144.022.025.059.037.104.075.023.019.034.037.076.063s.192.109.192.109.045.025.087.034c0 0 .02.01.029.011.002.001.01-.029.012-.029l.029.011s.037.021.058.023c0 0 .075-.007.14-.013.063-.002.136-.001.209-.019.004 0 .028.011.028.011s.083-.048.133-.082c.103-.042.198-.075.295-.153.473-.38.625-.74.995-1.255.55-.758 1-1.56 1.347-2.491zm-10.699 20.814c.015-.15.132-3.77-.054-1.062-.071-.35-.182-.752-.363-1.216-.487-1.249-.388-3.752.313-5.684 1.792-4.949.022-11.408-3.835-16.435-.17-.216-.425-.346-.699-.356-.273-.01-.538.101-.724.303-1.763 1.866-3.555 3.879-5.364 5.988-.27.307-.31.754-.097 1.103 1.171 1.95 2.343 4.3 3.775 7.418 1.26 2.743 2.528 5.28 3.54 7.158.503.931.918 1.7 1.287 2.283.182.286.324.521.487.728.076.097.229.229.217.219.24.214.574.288.882.198.31-.092.55-.335.635-.645zm29.398-80.41c.069-.284.001-.584-.186-.811-1.195-1.516-2.616-2.926-4.267-4.188-2.579-1.969-5.115-3.536-7.241-4.479-1.064-.472-2.019-.769-2.832-.907-.83-.141-1.505-.081-2.075.329l.44-.096.255.033.514.402.071.162.048.22.018.041-.934.071s.924.127.924.126c0 0-.021.05-.023.058l-.9-.185-.901-.185c-.032.171.025.632.146.829.305.498.694.708 1.278.936 1.194.468 2.83 1.77 4.564 3.6 1.682 1.774 3.457 4.025 5.066 6.346.257.389.761.529 1.181.328 1.518-.706 2.946-1.39 4.309-2.005.269-.111.472-.343.545-.625zm-108.67 270.56c.012-.296.06-.508.146-.715.115-.338.027-.711-.228-.961.083.08-.063-.092-.233-.26-.037-.043-.079-.081-.123-.115-.052-.037-.024-.002-.059-.022-.668-.44-1.319-.396-2.201-.292-1.794.214-4.235 1.127-6.787 2.679-1.712 1.042-3.406 1.855-5.06 2.551-.363.156-.588.525-.562.921.248 2.769.578 5.38.922 7.845.045.287.221.536.476.676s.559.151.824.034c4.843-2.086 8.044-5.451 10.54-10.808.216-.462.437-.748.58-.881.089.07.158.161.257.201.093.038.18.063.273.074.047.005.072.018.127.016.028 0 .073-.02.11-.023.038-.005.18-.03.18-.03.001-.001.09-.036.121-.054.033-.017.063-.024.081-.035.036-.022.075-.052.093-.064.036-.027.042-.056.063-.076.045-.04.103-.063.144-.111.084-.095.165-.208.247-.373.029-.057.053-.116.069-.177zm67.344-177.51c.182-.029-.471-3.073-.142-1.096-.18-.533-.465-1.167-.868-1.984-.331-.674-.537-1.388-.594-1.911-.023-.22-.007-.42.03-.592.056-.257.002-.117.017-.127.394-.29.555-.639.706-1.033.151-.393.268-.845.338-1.377.141-1.055.134-2.318.02-3.65-.229-2.67-.86-5.572-1.964-7.414-.484-.811-1.332-1.812-2.227-2.885-.181-.217-.453-.34-.735-.333-.284.007-.549.142-.721.367-1.692 2.195-3.396 4.5-5.103 6.862-.212.313-.213.724-.004 1.039 1.49 2.23 3.23 5.013 5.591 9.035 1.187 2.022 2.291 3.564 3.15 4.555.409.473.719.812 1.063 1.054.248.178.566.223.854.122.289-.103.507-.339.589-.632zm33.176-89.201c.099-.331.008-.69-.239-.933-4.875-4.964-11.369-8.369-17.291-8.38l-2.286.011c-.409-.016-.782.236-.917.622-.136.387-.004.816.325 1.06l5.021 3.979c3.557 2.832 5.887 4.875 7.705 6.977.275.324.734.42 1.116.235 2.107-1.071 4.145-2.089 6.083-3.022.229-.11.403-.308.483-.549zm-100.08 253.76c.121-.263-.16-1.418-.07-.935.2-.068.371-.202.484-.381.003-.003.009-.025.012-.028.023-.024.044-.051.063-.076.015-.032.021-.057.034-.088.027-.106.037-.216.026-.324.004-.011.008-.021.012-.029.004-.04.005-.099.005-.099-.037-.341-.257-.633-.574-.762-.001-.001-.481-.056-.482-.055 0 0-.193.061-.313.112-.145-.25-.242-.571-.436-.774-.432-.46-1.065-.739-1.7-.8-1.353-.131-2.947.429-5.432 1.531-2.367 1.05-4.733 1.806-7.052 2.24-.438.082-.757.464-.76.91-.024 2.948.083 5.789.196 8.5.011.264.132.511.334.679.203.17.468.245.729.208 1.172-.201 2.358-.48 3.349-.838 1.646-.593 2.734-1.133 3.595-1.981.864-.854 1.421-1.964 1.993-3.549.361-1.002.749-1.809 1.057-2.271.145-.216.169-.245.213-.286.264.158.527.355.786.308.218-.039.458-.174.601-.335.145-.161.229-.327.292-.489.019-.048.07-.116.226-.146.197-.038.519.001.854.133.414.162.607.249 1.034.271.419.014.796-.248.924-.646zm-1.117-1.176c-.06.138-.336.774-.336.774l-.315-.225s-.157-.197-.158-.196c.001.001-.049-.108-.053-.121l.862-.232zm-34.112 86.451c.125-.432-.075-.893-.479-1.093-1.625-.833-3.214-1.688-4.655-2.595-.222-.149-.496-.195-.756-.128-1.631.453-3.35.72-5.217.811-3.104.15-5.536.537-6.84 1.014-.307.111-.541.282-.549.288-.255.169-.41.452-.416.759-.006.306.139.595.387.773-.066-.059.044.001.087.034.005.014.012.026.018.041.11.071.234.133.338.165.363.11.73.151 1.226.212.542.066 1.032.233 1.297.373.085.045.082.052.105.075-.009.183.038.364.132.521.024.039.098.184.251.3.155.115.197.11.192.108.351.185.671.233 1.122.306.907.144 2.132.198 3.524.171 2.783-.058 6.145-.438 8.557-1.113.391-.109.758-.27 1.1-.408.279-.102.493-.329.576-.614zm90.268-233.24c.03.215.178-3.912.046-.888-.021-.588-.108-1.293-.201-2.059-.188-1.557-.497-3.47-.975-5.483-1.097-4.624-2.569-8.306-4.705-11.641-.169-.27-.464-.435-.783-.437-.318-.003-.616.158-.789.425-1.519 2.3-3.045 4.621-4.567 7.038-.223.335-.205.774.042 1.091 1.575 1.977 2.959 3.815 3.694 5.138 1.452 2.61 2.406 4.189 3.333 5.03.455.413.851.75 1.565.545.362-.104.527-.276.687-.469.05-.059.076-.155.12-.221.086.173.159.242.266.607.217.739.391 1.118.521 1.412.154.358.515.583.903.563.39-.019.727-.279.843-.651zm-58.698 147.54-1.425 1.153c.001.009.021.075-.075-.063-.03-.043-.096-.088-.143-.324-.011-.06-.012-.148-.007-.237.005-.091.085-.304.085-.303-.001.001.225-.315.224-.314 0 0 .278-.194.277-.194 0 0 .179-.029.249-.036.07-.008.13-.035.18-.03.101.009.182.039.244.062.063.023.101.057.163.098.032.021.067.042.105.075.038.03.124.113.123.113zm4.936-19.982c.766-.156-2.996-4.613-.923-1.67-.009-.009-.009-.032-.018-.041-.065-.174-.183-.324-.334-.433-.408-.294-.795-.397-1.339-.523s-1.218-.239-1.964-.299c-1.475-.12-3.274-.111-5.118.043-1.654.138-3.36.148-5.077.026-.482-.031-.908.313-.98.79-.481 3.482-.837 6.836-1.104 10.105-.017.268.082.529.271.719.189.189.45.288.718.272 4.427-.238 8.212-1.157 10.098-3.162 1.016-1.078 2.85-2.87 4.039-3.889.499-.427.911-.747 1.234-1.094.303-.326.466-.745.497-.844zm41.088-111.04c.178-.813-.012-1.608-.438-2.654-.27-.66-.465-1.513-.517-2.283-.052-.777.029-1.446.195-1.87.271-.692.308-1.472.245-2.253-.063-.782-.235-1.551-.608-2.218-.729-1.303-2.415-3.405-4.4-5.649-.198-.223-.491-.337-.789-.308-.297.03-.563.201-.713.458-1.644 2.816-3.32 5.684-4.944 8.602-.183.343-.133.764.124 1.056.206.25.388.5.604.773 2.081 2.644 3.42 4.154 4.528 5.062 1.093.895 2.201 1.137 3.217.957.625-.111.866-.065 1.05-.025-.039.148-.057.3-.043.453.01.109.031.228.072.33.04.103.059.161.211.317.416.427.752.418 1.21.34.408-.07.619-.292.757-.476.137-.184.19-.393.239-.612zm43.968-115.31c.098-.339-.007-.705-.268-.944-4.407-4.253-10.268-7.185-15.47-6.861l-3.236.209c-.396.033-.729.314-.828.7-.098.386.061.792.394 1.01l6.117 4.005c2.465 1.618 4.646 3.209 6.242 4.457-.019.091-.05.203-.051.215-.001.019.008.045.007.069-.002.025-.022.04-.023.059s.018.041.018.041.078.455.085.469c.007.015.009.02.018.041.018.041.036.081.036.081s.188.292.211.317c.012.013.021.002.029.012.009.009.018.04.018.04s.336.232.344.236c.009.003.048.018.059.022s.021.008.029.012c.008.003.047.018.058.022s.022.009.029.012l.239-.611c.268.095.564.063.806-.087l.216.05c.049-.199.06-.307.066-.343.004-.01.008-.019.012-.029.014-.005.027-.011.04-.018l.109-.192c.008-.019.016-.038.022-.058.007-.004.005-.025.012-.029 1.409-.809 2.828-1.589 4.207-2.346.22-.119.384-.32.453-.561zm-82.13 206.79c.15-.501.14-2.051.1-1.538-.735.821-.219.676-1.063.657-.72-.303-.321-.1-.554-.385l.814-.452.751-.546c-.295-.39-.639-.556-1.032-.706s-.862-.251-1.466-.372c-1.624-.325-5.4-.645-8.641-.731-.658-.018-1.524-.129-2.421-.243-.477-.073-.93.229-1.046.698-.81 3.202-1.497 6.367-2.118 9.439-.051.251.003.511.149.721.146.209.372.35.625.388 3.658.492 6.468.483 8.529-.185 2.099-.68 3.415-2.186 3.77-4.229.086-.492.198-.885.288-1.163.063-.198.073-.209.103-.262.057.029.122.04.268.172.243.218.51.387.758.465.399.123.616.107 1.004-.077.709-.341.86-.826 1.16-1.593.008-.019.016-.039.022-.058zm4.752-18.309-.099-.006c.026-.122.144-.271.137-.349-.017-.197-.064-.306-.107-.411-.087-.213-.171-.368-.289-.55-.234-.362-.545-.746-.797-1.05-.125-.152-.219-.287-.316-.393-.048-.053-.082-.103-.14-.155-.029-.027-.089-.047-.163-.098-.037-.026-.074-.063-.192-.108-.03-.012-.043-.023-.088-.034-.043-.013-.186-.04-.186-.04s-.237.007-.238.008c0 0-.323.141-.324.142-.396-.138-.805-.288-1.25-.321-.151-.013-.511-.09-1.046-.242-.509-.145-1.139-.349-1.879-.601-1.385-.473-3.13-1.116-4.894-1.815-.237-.095-.502-.089-.732.018-.231.106-.41.302-.494.543-.129.351-.249.692-.369 1.029-.997 2.797-1.864 5.497-2.708 8.202-.152.472.092.979.554 1.157 2.924 1.188 5.095 1.694 6.899 1.492 1.854-.207 3.277-1.233 4.471-2.847.441-.597 1.018-1.175 1.578-1.631.582-.474 1.046-.758 1.288-.805.32-.063.611-.153.868-.331.094-.066.104-.204.184-.298l.029.012c.044-.037.012-.076.045-.116.096-.139.226-.243.258-.402zm21.147-55.988c.285-.687.285-1.443.186-2.444-.1-1.005-.351-2.208-.701-3.697-.542-2.312-2.037-4.975-3.967-7.526-.188-.266-.502-.413-.827-.39-.325.024-.613.216-.762.506-1.501 2.869-2.968 5.733-4.434 8.668-.193.393-.085.868.258 1.141 1.455 1.204 3.084 2.442 4.563 3.263 1.43.794 2.545 1.291 3.486 1.466.452.084.888.108 1.3-.062.336-.141.73-.521.898-.925zm-14.676 35.6c.065-.556-.222-1.013-.174-.841-.097-.229-.28-.408-.509-.501-.028-.013-.058-.024-.087-.034-4.153-3.302-6.429-4.988-8.874-6.394-.232-.132-.51-.156-.763-.068-.252.087-.455.277-.557.525-1.276 3.075-2.521 6.184-3.733 9.277-.181.448.012.962.444 1.181 2.262 1.19 3.715 1.878 5.403 1.713 1.74-.17 3.486-1.138 6.763-2.957.568-.316 1.028-.597 1.392-.898.281-.232.394-.496.505-.775.01.001.099.005.099.005.004-.007.01-.024.012-.029.005-.01.004-.014.011-.028l-.058-.023c.003-.009.009-.02.011-.029l.059.023c.006-.014.013-.031.022-.059.007-.022.022-.036.034-.088zm-61.675 156.17c.071-.254.031-.525-.109-.747-.597-.979-1.211-2.449-1.814-4.368-.148-.446-.605-.711-1.066-.619-1.352.255-2.688.449-3.994.517-1.16.062-2.333.156-3.312.314-.51.083-.988.202-1.321.289-.384.099-.658.224-.879.36-.789.488-1.299.964-1.403 1.699-.043.303.09.776.245 1.002.15.218.437.495.794.714 1.367.836 3.757 1.385 7.319 1.791 1.53.175 3.151.027 4.814-.297.347-.063.627-.317.726-.655zm64.627-177c.833-1.917 1.349-4.036.985-5.688-.333-1.515-1.457-2.994-2.964-4.517-.213-.217-.519-.316-.818-.268-.301.049-.558.242-.689.517-1.601 3.383-3.146 6.818-4.683 10.248-.176.418-.024.902.356 1.146 1.026.678 1.965 1.266 2.664 1.681.367.217.653.428.95.573.151.074.261.105.35.137.017.006-.016-.007.029.012.174.071.367.088.552.048.774-.172 1.24-.688 1.771-1.354.547-.683 1.079-1.573 1.497-2.535zM265.115.089c.141-.428-.043-.895-.438-1.111-.188-.107-.325-.174-.512-.234-.039-.012-.158.034-.209.019-.095-.097-.101-.08-.245-.23-.065-.075-.143-.139-.229-.19-.135-.067-.142-.068-.028-.012-6.929-3.471-9.036-4.008-15.941-3.857-1.326.029-2.215.088-2.928.364-.165.064-.296.137-.428.235-.065.049-.141.109-.207.187-.066.079-.132.101-.2.425 0 0-.025.125-.027.157s.005.05.006.07c.001.038.004.046.006.069.006.046.005.103.013.139.017.073.029.115.06.191.061.153.162.345.3.52.521.661 1.414 1.298 2.843 2.254 1.428.954 3.348 2.124 5.889 3.647 1.366.819 2.663 1.705 3.924 2.577.326.225.76.22 1.079-.014 2.305-1.646 4.583-3.22 6.883-4.722.18-.111.318-.282.389-.484zm-120.96 304.25c.035-.144.035-.293.002-.436-.345-1.584-.673-3.322-1.001-5.157-.049-.256-.202-.478-.423-.614-.22-.138-.487-.178-.737-.108-1.982.59-3.645.755-4.378.467-.767-.3-1.566-.225-2.606-.114-1.029.109-2.196.333-3.291.692-1.4.458-2.412.859-3.153 1.282-.37.211-.649.363-.946.703-.119.136-.269.37-.31.617-.039.247.021.372.021.377.033.273.168.65.506.937.305.258.638.428 1.038.607.829.372 1.946.706 3.438 1.077 4.088 1.018 7.656 1.152 11.133.365.349-.075.624-.347.707-.695zm-2.569-15.469c.02-.112.02-.226-.002-.337-.294-2.229-.606-4.535-.863-6.882-.029-.251-.157-.478-.355-.631-.199-.154-.452-.222-.701-.186-1.159.157-2.345.313-3.74.382-1.893.094-3.86.349-5.537.685-1.685.338-2.984.722-3.814 1.259-.538.347-.957.572-1.312.862-.182.149-.333.286-.438.433-.042.059-.058.181-.091.232-.036.045-.045.026-.098.164-.009.022.013.044.006.069-.066.27-.017.628.07.766 0 0 .084.113.111.144s.058.047.075.063c.037.032.06.051.076.063.034.025.048.016.059.022.022.015.009.035.018.041.018.011.052.006.087.034.27.218.639.494 1.138.78.506.291 1.071.673 1.528 1.068.465.402.79.774.918.997.108.188.154.2.205.248.052.049.094.085.152.127.117.083.268.177.442.24.367.132.656.143 1.028.201.779.123 1.793.228 2.956.251 2.23.044 4.925-.132 7.274-.407.388-.038.709-.313.808-.688zm107.17-276.83c.13-.454-.101-.933-.536-1.116-5.888-2.498-12.592-3.524-17.283-1.799-.777.286-1.281.57-1.659.895-.077.065-.144.124-.208.187-.032.032-.071.072-.115.123-.042.052-.113.07-.194.327-.052.16-.035.674.064.864.297.569.688.773 1.349 1.099.634.313 1.485.626 2.543.962 2.175.69 5.395 2.327 8.527 4.278.352.218.806.176 1.113-.101 1.987-1.809 4.023-3.551 6.078-5.239.154-.123.266-.29.321-.48zM139.806 272.5c.036-.115.049-.235.038-.354-.225-2.708-.447-5.447-.617-8.195-.021-.287-.174-.548-.413-.707-.238-.159-.539-.199-.812-.108-1.859.631-3.415.922-5.1 1.024-1.477.089-3.069.271-4.447.474-1.376.202-2.469.401-3.17.639-1.505.509-2.553 1.26-2.931 2.343-.377 1.081.064 2.282 1.023 3.388.658.757 1.66 1.311 2.938 1.754 1.276.442 2.76.726 4.307.914 3.072.373 6.355.309 8.619-.586.269-.101.476-.317.565-.586zm93.576-245.97c.063-.244.025-.503-.105-.719-.13-.215-.343-.369-.588-.425-.921-.225-1.88-.422-2.906-.634-5.892-1.221-9.973-1.361-18.04-.552-.616.062-1.084.137-1.455.202-.11.02-.218.038-.331.072-.273.088-.49.297-.589.566-.099.27-.068.569.083.813-.023-.044.022.013.047.052.005.013.012.027.018.04.037.055.074.104.111.145.202.218.526.536.953.91.361.318.823.588 1.562.981s1.668.838 2.761 1.349c2.189 1.023 4.981 2.226 7.842 3.372 1.185.475 2.271.944 3.342 1.409.383.158.824.043 1.083-.281 1.058-1.284 2.139-2.534 3.182-3.755.243-.274.302-.667.15-1.002-.151-.335-.485-.549-.853-.548.261-.111.522-.251.92-.378.449-.143.718-.192.892-.221.359.144.77.05 1.031-.234.239-.264.455-.521.662-.748.109-.116.188-.259.228-.414zm-94.687 226c.028-.106.038-.216.027-.325-.09-3.131-.114-6.216-.109-9.237-.001-.281-.127-.544-.345-.721-.217-.176-.502-.245-.775-.188-1.126.212-2.263.39-3.542.561-1.727.229-3.603.615-5.25 1.065-1.646.449-3.03.914-3.912 1.422-.83.476-1.464.88-1.917 1.296-.205.188-.37.355-.518.637s-.192.687-.139.953c.134.652.505 1.099 1.121 1.68.606.571 1.431 1.199 2.499 2.019 1.398 1.074 2.4 1.742 3.613 2.086s2.501.325 4.394.177c1.238-.098 2.716-.44 4.179-.814.316-.075.571-.306.674-.611zm79.107-206.87c.063-.244.025-.503-.104-.718-.131-.215-.344-.369-.589-.426-.737-.187-1.511-.354-2.278-.523-3.276-.716-6.884-1.146-9.822-1.228-1.47-.04-2.79-.004-3.777.132-.532.074-.937.208-1.233.322-.156.061-.289.128-.416.207-.127.078-.286.045-.473.52.017-.042.074-.039-.058-.023-.142.017-.413-.027-.715-.146-.275-.108-.601-.181-.924-.127s-.592.254-.774.435c-.453.451-.591.999-.672 1.717-.058.505-.19.823-.318.983-.049.062-.089.085-.104.094-.404-.158-.76-.109-.796-.11-.445-.019-.842.28-.946.713-.104.434.113.88.519 1.065.115.055.205.101.396.188.655.303 1.607.696 2.771 1.152 2.327.913 5.526 2.077 9.111 3.299 1.422.484 2.706.935 3.928 1.37.397.14.838-.004 1.077-.35.642-.893 1.255-1.792 1.878-2.654.295-.422.192-1.003-.23-1.298.13.028.321.043.441.072.368.091.755-.049.979-.355.992-1.342 1.981-2.672 2.965-3.974.076-.099.133-.214.164-.337zm-5.266 4.449c-.374.022-.633-.04-.946-.068.214.009.327-.043.574-.01.163.021.233.056.372.078zm-73.551 179.48c.011-.065.014-.132.01-.197.14-2.049.343-4.001.549-5.859.145-1.293.309-2.582.477-3.875.045-.312-.07-.625-.308-.833-.237-.207-.563-.282-.866-.196-1.972.512-3.799.848-5.233.938-2.294.143-5.922 1.289-8.413 2.546l-3.973 2.002c-.276.134-.469.396-.515.701-.045.305.063.611.288.821l2.191 2.032c3.445 3.231 9.046 3.906 15.096 2.587.338-.076.608-.333.697-.667zm63.452-162.42c.093-.275.054-.578-.109-.819-.162-.241-.428-.393-.718-.411-5.532-.463-10.762-.3-14.753.567-2.561.557-5.611.982-6.563.989-.803.006-1.424.187-1.888.536-.42.316-.744 1.047-.655 1.589.104.64.465 1.175.959 1.751.493.577 1.162 1.185 2.015 1.796 2.208 1.582 5.901 2.638 13.127 3.931.373.067.752.136 1.127.206.363.061.729-.099.932-.407 2.107-3.19 4.242-6.335 6.395-9.477.055-.077.099-.161.131-.251zm-16.036 25.1-.056-.458c.233-.375.172-.861-.147-1.166l-.037-.249c-.014.005-.027.011-.04.018 0 0-.002.141.001.168-.149-.103-.325-.16-.506-.165-3.838-.241-7.515-.352-10.237-.082-3.21.32-5.116.6-6.619 1.134-1.497.533-2.531 1.367-3.868 2.681-.728.715-1.208 1.263-1.454 1.914-.113.299-.154.664-.091 1.005s.214.627.372.85c.408.58.973.894 1.883 1.275.888.371 2.054.762 3.427 1.105 2.688.675 6.256 1.279 10.337 1.799.366.045.725-.131.913-.448 1.921-3.188 3.929-6.425 5.981-9.706.011.091.043.319.043.319.002 0 .037-.018.041-.018.008 0 .024.012.028.012-.008.001.029.012.029.012zm-43.741 111.48c.003-.033.005-.066.005-.099.764-3.842 1.606-7.627 2.471-11.282.079-.307-.003-.632-.216-.864-.214-.232-.531-.341-.844-.288-5.376.839-11.253 2.158-13.96 3.428-1.339.628-2.345 1.161-3.11 1.602s-1.291.744-1.668 1.26c-.135.185-.312.464-.348.804-.036.338.058.616.146.828.228.551.621.979 1.107 1.542 3.28 3.78 8.9 4.928 15.702 3.696.335-.064.609-.303.715-.627zm5.56-23.631c1.036-3.896 2.089-7.635 3.08-11.211.085-.296.021-.615-.176-.852-.195-.238-.496-.364-.803-.337-6.059.376-10.121 1.26-12.763 2.856-1.216.734-2.138 1.356-2.83 1.913-.69.556-1.19 1.028-1.414 1.728-.202.635.014 1.362.386 1.93.386.589.958 1.188 1.754 1.861 1.632 1.381 3.379 2.444 4.822 3.029.72.291 1.314.471 1.924.484.344.008.658-.065.869-.163.192-.089.543-.443.628-.66-.009.021.038-.044.231-.077.225-.039.482-.013.796.11.405.158.738.157 1.18.159.44.003.951-.037 1.52-.109.375-.039.688-.3.796-.661zm24.413-65.447c.08-.258.045-.537-.097-.767-.143-.229-.377-.386-.644-.429-.445-.084-1.001-.121-1.729-.04-.887.098-1.903.299-2.833.636-1.686.611-3.992 1.228-5.038 1.384-.85.126-1.59.608-2.48 1.277-.889.668-1.771 1.541-2.5 2.444-.701.869-1.391 1.719-1.915 2.405-.262.341-.472.648-.649.887-.178.236-.277.301-.414.543-.128.227-.115.38-.124.488-.004.053-.017.092-.017.127.001.019.017.024.019.041 0 .008-.013.019-.012.029 0 .004.017.029.018.04.001.01.024.11.024.11.009.037.148.45.353.642.426.396.837.512 1.38.675 1.091.324 2.507.42 3.966.243 1.274-.155 3.173-.094 3.964.075.332.07.589.08.976.08.388-.001.838-.027 1.329-.051.335-.009.639-.197.797-.493 1.714-3.234 3.546-6.613 5.56-10.173.026-.055.049-.114.066-.173zm-16.681 36.694c.196-.83.361-1.688.533-2.477.399-1.835 1.287-4.299 2.5-7.243.124-.295.089-.633-.095-.896s-.489-.413-.809-.397c-.71.027-1.418.039-1.712.001-1.66-.222-4.158.208-5.993.909-1.656.631-4.193 1.268-5.485 1.409-.982.107-1.822.39-2.454.953-.611.545-1.003 1.288-1.266 2.289-.148.569-.256 1.051-.267 1.54-.012.477.109.941.357 1.314.535.803 1.383 1.18 2.839 1.749.854.335 1.787.799 2.528 1.259.764.473 1.306.899 1.494 1.155.403.547 1.107.979 1.771.962.745-.02 1.362-.348 2.164-.898.522-.358 1.166-.671 1.677-.854.24-.086.405-.111.591-.138.231-.033.183-.029.209-.02.001.001.141.024.157.028.016.003.018.01.028.012.021.004.039.019.059.022.04.007.083.01.128.017.478.074.931-.228 1.046-.696zm-1.532-29.26c.04-.187.022-.381-.051-.557-.169-.454-.088-.642-.467-1.123-.189-.24-.564-.417-.799-.446-.233-.029-.393.001-.574.01-.069-.002-.14.005-.209.02-.37.101-.435.101-.672.173-.117.036-.313.128-.416.206-.102.079-.143.128-.207.188-.206.188-.317.458-.304.736.015.279.153.536.378.702.215.164.3.268.21.149-.045-.06-.299-.23-.128-.788.087-.28.325-.506.495-.578.17-.074.289-.06.359-.061.069-.002.115-.017.139-.013l-.322 1.854c.057.02.171.061.465.182.087.038.18.063.273.074.064.005.05-.012.012-.029-.038-.02-.094-.039.076.063.085.05.258.143.477.152s.406-.073.521-.131c.23-.117.32-.178.45-.294.148-.128.25-.299.294-.489zM14.36 64.287c-.179-1.768.714.099-.402-1.802-.368-.576-.923-1.233-1.651-1.955-.988-.982-1.88-1.689-3.085-2.147-1.218-.464-2.696-.683-4.969-.939-.573-.065-1.18-.147-1.789-.23-.366-.045-.724.131-.914.448-1.573 2.688-2.96 5.066-4.47 7.646-.178.296-.176.668.004.963.18.296.509.468.854.446.517-.035.975-.07 1.508-.081 4.897-.101 8.354-.293 10.696-.578 1.175-.143 2.072-.297 2.77-.56.672-.253 1.22-.57 1.448-1.211zm9.629-27.341c.19-.63.184-1.335.037-2.066-.242-1.201-1.223-2.106-2.656-2.818-1.381-.686-3.22-1.187-5.292-1.568-.424-.076-.844.148-1.018.542-1.103 2.54-2.279 5.088-3.489 7.627-.15.32-.107.696.11.974.219.277.575.407.92.337 2.519-.485 5.19-.757 6.217-.621 1.282.17 2.388.055 3.293-.355.896-.405 1.602-1.133 1.878-2.052zM34.728 9.001c.251-.853.095-1.77-.311-2.807-.375-.959-.943-1.726-1.746-2.227-.816-.51-1.829-.779-3.35-1.043-1.066-.186-2.068-.324-3.044-.454-.451-.065-.884.206-1.022.64-.751 2.501-1.549 5.036-2.388 7.556-.101.31-.034.65.177.897s.537.366.859.314c2.644-.451 5.081-.903 6.833-1.252.947-.188 1.723-.381 2.283-.516.266-.064.481-.094.701-.162.243-.074.321-.11.497-.241.1-.073.436-.453.511-.705zM1.253 89.795c.297-.759.094-1.655-.365-2.324-.474-.692-1.235-1.303-2.248-1.887-2.01-1.161-4.979-2.16-8.708-2.872-.724-.139-1.433-.277-2.086-.414-.381-.075-.768.095-.972.425-1.555 2.657-3.057 5.224-4.556 7.781-.174.287-.181.644-.018.937.163.292.47.476.806.479 4.949.043 9.209-.076 12.288-.357 1.606-.147 2.899-.359 3.861-.603.462-.117.811-.181 1.187-.374.333-.175.617-.295.811-.791zm40.582-107.18c.193-.478.214-.96.192-1.435-.023-.489-.003-1.021.053-1.422.024-.165.082-.334.136-.518.063-.211.05-.214.05-.215.22-.332.271-.479.243-.878-.001-.014.012-.015.011-.029-.004-.041-.03-.179-.03-.18l-.095-.272-.216-.219-.181-.138s-.045-.018-.087-.034-.073-.03-.087-.034c-.028-.007-.041.018-.041.018-.147-.045-.254-.066-.401-.09-.193-.031-.44-.083-.727-.116-.571-.066-1.306-.145-2.166-.21-1.653-.127-3.751-.228-5.881-.322-.448-.007-.838.305-.929.744-.529 2.678-1.139 5.382-1.763 8.103-.079.306.002.632.216.865s.531.341.842.288c1.583-.266 3.067-.529 3.652-.584 1.938-.181 3.51-.546 4.716-1.073 1.204-.527 2.094-1.266 2.493-2.249zm7.231-25.929c-.046-1.124.042-.922-.32-1.669-.124-.243-.391-.554-.777-.673-.171-.053-.292.016-.446.026-1.179-.575-3.018-1.171-6.213-2.13-1.767-.53-3.304-.869-4.721-1.143-.257-.055-.524.002-.737.154-.214.153-.353.389-.383.649-.292 2.743-.613 5.548-.995 8.37-.042.292.058.587.267.795.21.208.505.304.797.259 1.092-.155 2.174-.314 3.247-.407 2.411-.209 4.724-.762 6.546-1.464.92-.354 1.714-.738 2.336-1.167.622-.428 1.109-.86 1.364-1.513.014-.028.025-.057.035-.087zm-62.111 158.48c.207-.791.017-1.715-.518-2.619-.192-.324-.387-.442-.649-.656-.262-.215-.588-.446-.974-.684-.758-.467-1.712-.979-2.861-1.522-2.224-1.056-5.117-2.238-8.091-3.335-.417-.142-.875.029-1.1.408-1.787 3.029-3.629 6.129-5.342 9.017-.174.286-.181.644-.018.938.164.292.47.476.806.479.444.003.87-.028 1.259-.044 9.979-.424 11.257-.438 13.92-.155.894.095 1.664-.039 2.284-.347.566-.284 1.114-.826 1.284-1.48zm66.417-180.46c.213-.544.359-.973.455-1.332.053-.196.087-.383.106-.529.005-.04-.018-.104-.013-.139 0-.007.011-.021.011-.029.014-.088.015-.178.004-.267-.005-.032.003-.029-.006-.069-.01-.004-.019-.008-.029-.012.008-.019.016-.038.022-.058-.01-.004-.019-.007-.029-.011.003-.01.007-.019.011-.029-.01-.004-.019-.007-.029-.011-.005-.014-.011-.027-.018-.041.004-.009.008-.02.011-.029-.015-.018-.03-.035-.046-.052-.005-.013-.012-.027-.018-.041-.006-.011-.011-.03-.018-.041-.01-.004-.019-.007-.029-.011-.015-.018-.03-.035-.046-.052-.005-.014-.012-.027-.018-.041-.015-.018-.03-.035-.047-.052-.161-.159-.374-.255-.6-.269-.313-.009-.358.032-.499.073s-.299.109-.474.184c-.297.126-.882.214-1.542.168-.649-.045-1.348-.226-1.965-.467-3.123-1.223-6.862-1.545-10.791-1.069-.453.056-.799.432-.817.888-.096 2.497-.18 5.065-.344 7.651-.015.285.102.561.315.749.215.189.503.269.783.218.842-.154 1.676-.282 2.545-.414 5.268-.802 8.173-1.316 9.996-1.959.899-.317 1.567-.667 2.069-1.17.503-.502.802-1.102 1.05-1.737zm-79.845 202.58c.038-.573-.134-.797-.392-1.228-.259-.434-.615-.874-1.062-1.489-.729-1.006-1.708-1.919-3.434-2.888-1.682-.945-4.114-2.017-7.755-3.506-.423-.158-.898.008-1.129.396-1.959 3.264-3.867 6.425-5.722 9.473-.156.252-.183.563-.072.839.111.275.346.481.634.556 2.895.687 5.218.65 7.717-.167 1.046-.343 2.161-.619 3.105-.731.963-.114 1.683-.046 1.985.072 1.181.463 2.789.415 4.133.074.502-.127.85-.173 1.256-.381.149-.076.309-.17.484-.38.177-.211.246-.541.252-.64zm-13.247 21.495-.087-.034c.039-.097.164-.201.172-.269.025-.196.022-.323.002-.436-.041-.224-.132-.389-.208-.584-.151-.392-.347-.809-.525-1.146-.089-.169-.164-.309-.235-.428-.035-.06-.053-.11-.1-.174-.023-.031-.047-.076-.111-.144-.033-.034-.067-.067-.181-.138-.028-.019-.104-.075-.105-.075l-.186-.039s-.255-.034-.255-.033c0 0-.059.012-.11.024-.401-.387-.668-.752-1.187-1.17-2.1-1.695-5.097-3.674-8.56-5.565-.442-.237-.991-.082-1.245.352-1.78 2.859-3.487 5.599-5.174 8.243-.164.248-.201.56-.097.838.103.279.333.493.619.574 1.549.425 3.027.76 4.226.95.666.105 1.266.181 1.771.189.506.009.914-.021 1.345-.178 1.045-.385 3.667-.423 5.542-.012 1.048.229 1.996.301 2.799.223.391-.038.742-.089 1.101-.24.136-.058.209-.237.323-.31l.046.052c.104-.056.082-.135.149-.21.086-.094.198-.075.271-.26zm93.87-243.81c.105-.274-.063-1.087-.046-.824.074-.276.016-.571-.157-.8-.13-.163-.197-.209-.234-.259-.114-.164-.278-.287-.467-.351.111.036.118.032-.058-.022-.176-.055-.647-.039-.898.151-.303.23-.453.419-.615.8-.1.233-.134.395-.176.535-.276.03-.399-.073-.43-.102-.076-.07-.158-.179-.205-.248-.025-.036-.056-.034-.076-.063l.053.122-.886.291.839.429-.138.181-.45.293-.18.031-.285-.044-.07.006-.221-.12s-.116-.069-.134-.086-.011-.033-.018-.041l.657-.649.023-.058.651-.55c-.094-.109-.234-.16-.333-.265l-.2.425.171-.437c-2.876-3.009-7.407-3.931-12.4-3.042-.446.093-.76.496-.742.952.069 2.479.052 5.063.057 7.741-.002.294.135.572.369.75.235.178.539.234.821.153 1.867-.53 3.679-.91 5.308-1.043 2.648-.215 4.958-.667 6.734-1.257 1.792-.594 3.034-1.218 3.622-2.307.072-.136.108-.275.114-.292zm-105.72 262.33c-.101-1.073.194-.785-.174-1.612-.404-.433-.805-.691-.864-.707-.496-.42-1.085-.794-1.737-1.049-.57-.224-1.149-.521-1.521-.831-.427-.356-.567-.585-.604-.772-.188-.983-.972-1.725-2.038-1.738-.129-.002-.088-.008-.157-.027-.041-.012-.178-.064-.378-.148-.312-.132-.759-.367-1.264-.629-.925-.481-2.123-1.139-3.444-1.919-.426-.254-.975-.13-1.251.282-1.616 2.421-3.185 4.718-4.73 6.94-.173.243-.219.554-.124.837s.32.504.604.593c2.123.655 4.086 1.069 5.682.916.874-.084 1.903-.028 2.833.136.937.164 1.713.423 2.112.692 1.146.771 2.63.947 3.946.807.664-.071 1.276-.226 1.795-.472s.977-.534 1.245-1.123c.029-.058.052-.116.069-.176zm106.39-276.9c-.121-.893.195-.611-.426-1.14-1.452-.095 1.475-.774-.941-.167-.033-.003-.066-.005-.099-.005-.051-.013-.104-.023-.157-.028-.282-.004-.626-.11-.942-.335-.341-.243-.648-.585-.796-.882-.151-.295-.446-.489-.777-.508s-.647.14-.831.416c-.045-.007-.074-.015-.186-.039-.49-.104-1.446-.519-2.806-1.233-3.058-1.604-5.138-1.994-8.257-1.454-.481.083-1.05.23-1.633.401-.433.118-.719.527-.684.974.146 1.771.301 3.615.418 5.533.018.261.145.502.349.665s.467.232.725.192c1.257-.18 2.454-.313 3.596-.27 2.264.087 5.45-.14 8.15-.501 1.361-.182 2.634-.439 3.547-.659.45-.108.77-.179 1.094-.31.073-.029.106-.022.11-.024.27-.112.472-.343.546-.626zM-63.1 195.271c.293-.832.036-2.42-.235-1.971-.329-.685-.836-1.332-1.448-2.044-1.244-1.447-2.982-2.995-4.793-3.957-1.313-.697-3.232-1.952-5.306-3.42-.413-.294-.983-.204-1.287.201-1.596 2.13-3.142 4.134-4.685 6.053-.194.237-.259.556-.175.851.086.295.312.529.604.626 2.873.876 5.593 1.621 7.26 1.601 1.217-.016 2.057.055 2.706.287.653.232 1.153.587 1.68 1.194.572.659.849 1.059 1.466 1.313.247.101.689.112.952-.03.04-.021.184-.119.3-.251.101-.116.186-.228.235-.345.575.75 1.647.79 2.341.279.024-.019.039-.018.041-.019.006-.004.022-.025.052-.047.015-.011.081-.035.081-.035 0-.001.075-.104.075-.104-.001-.001.136-.182.136-.182zm118.49-309.78c.071-.242.1-.683-.223-1.06-.322-.377-.718-.381-.931-.365-.425.034-.627.164-.845.273-.042.015-.082.033-.122.053-.331.225-.505.286-.751.377-.247.092-.707.294-.987.721-.251.397-.168.918.194 1.217-.027-.022.077.08.239.161.164.081.311.128.448.142.356.036.732.004 1.154-.119.719-.21 1.289-.59 1.669-1.091.071-.093.123-.198.155-.309zm-129.07 320.6c-.029-.735-.303-.595-.345-1.176.146-.216-2.79-2.346-.977-1.021-.976-.894-2.566-2.132-5.073-4.1-1.554-1.222-3.031-2.505-4.456-3.792-.187-.172-.434-.26-.686-.245-.253.015-.489.133-.654.325-1.325 1.502-2.635 2.879-3.938 4.23-.204.213-.294.513-.243.805.052.292.238.541.503.673 2.271 1.188 4.371 2.008 6.102 1.986 1.215-.016 1.995.072 2.672.375.686.305 1.297.828 2.184 1.794.95 1.034 1.482 1.624 2.226 1.945.332.143.805.153 1.085.056.364-.127.612-.318.872-.598.336-.364.588-.667.693-1.172.014-.026.026-.056.035-.085zm123.97-319.85c.11-.442-.008-1.014-.261-1.478-.266-.488-.688-.964-1.241-1.459-1.456-1.302-2.433-2.053-3.859-2.316-1.439-.265-3.188-.077-6.421.372-.968.135-1.986.377-2.99.608-.483.107-.798.573-.718 1.061.238 1.663.521 3.478.748 5.461.031.269.179.511.402.663.224.152.503.2.764.129 3.05-.858 6.331-1.4 7.813-1.271 1.544.136 2.819.118 3.817-.15.985-.262 1.739-.788 1.946-1.62zm-135.07 329.84c.086-.284.032-.592-.145-.829-.045-.062-.087-.15-.147-.225-.059-.076-.087-.098-.187-.208-.088-.097-.196-.173-.315-.224-.009-.006-.019-.007-.029-.012-.503-.476-1.156-1.098-1.975-1.813-1.712-1.497-4.023-3.381-6.481-5.39-.359-.294-.642-.545-.958-.812-.358-.315-.896-.309-1.248.016-1.157 1.038-2.332 2.055-3.512 3.055-.239.2-.363.506-.329.816.034.309.221.582.497.726 1.697.898 3.655 1.822 6.167 2.851 2.221.908 4.188 1.664 5.668 2.152.663.217 1.178.326 1.611.429-.004-.003.134.032.215.051.037.014.053.025.087.034.466.1.931-.165 1.081-.617zm130.56-338.81c.097-.34-.007-.706-.268-.944-.131-.118-.35-.295-.502-.431-.005-.013-.012-.027-.018-.041-.006-.006-.022-.006-.029-.012-.076-.114-.175-.21-.292-.282-.649-.385-1.525-.804-2.544-1.13-2.065-.661-4.549-1.127-6.373-.951-.541.052-1.094.175-1.628.302-.246.053-.46.203-.595.416-.134.213-.176.471-.117.716.199.911.393 2.098.647 3.576.042.257.19.485.409.628.218.143.487.188.739.124 2.279-.581 4.554-.93 5.785-.89 1.102.036 2.149.008 2.964-.115.434-.064.809-.158 1.072-.251.095-.034.139-.055.243-.106.052-.025.123-.079.248-.205s.209-.23.104-.094c.072-.093.123-.199.155-.31zm-3.316-5.93c.111-.448-.121-.91-.548-1.087-.256-.112-.433-.194-.803-.348-2.491-1.036-5.47-1.259-8.566-.836-.287.044-.537.22-.676.475-.139.254-.152.56-.034.825.225.49.414 1.004.615 1.516.153.411.573.66 1.008.596 2.617-.435 5.417-.629 7.494-.456.246.021.353-.004.534.008.449.035.861-.257.976-.693zm-137.3 349.6c.257-.235-.55-2.098-.188-1.147l-.515.201c.023-.083.034-.17.033-.256 0 0-.037.165-.085.303l-.283.124-.537.428-.196.158c-.004-.006-.027-.029-.082-.133-.002-.006.014-.025.011-.029-.01-.004-.019-.008-.029-.012-.01-.021-.021-.042-.035-.081-.01-.03-.024-.111-.024-.11l-.03-.18s.067-.344.067-.343c0 0 .276-.362.276-.361 0 0 .388-.219.387-.218 0 0 .268.003.267.004 0 0 .127-.012.168-.001.028.007.039.016.059.022 0 0 .013.023.018.04.004-.01.008-.02.011-.028.052.018.093.033.117.045-.032-.028-.027-.058-.065-.092-.043-.04-.095-.049-.134-.086-.017-.018-.032-.038-.047-.052-.005-.014-.011-.028-.018-.041-.005-.005-.024-.008-.029-.012-.023-.023-.061-.048-.029-.011-.01-.028-.023-.056-.036-.081-.781-.749-1.961-1.654-3.636-2.8-1.261-.862-2.497-1.861-3.671-2.88-.234-.208-.558-.284-.86-.203-.013.005-.025.01-.041.018-.024.002-.046.003-.07.007-.032.019-.014.017-.052.047-.032.019-.063.04-.092.064-.004.009-.008.019-.012.029-.023 0-.046.003-.069.006-.766.607-1.525 1.212-2.279 1.793-.216.178-.341.443-.341.723.001.281.128.546.346.722 2.039 1.625 4.263 3.045 6.663 3.984 1.297.508 2.335.815 3.106.981.39.083.694.128.993.12.088-.002.198-.003.319-.043.306-.082.549-.316.644-.619zm-.659-1.232c0-.085-.013-.168-.037-.249.001 0 .034.205.037.249zm-5.758 5.365c.112-.348.012-.728-.257-.973l-1.151-1.089c-.019-.008-.039-.016-.059-.022-.005-.014-.011-.027-.018-.041-.019-.008-.039-.016-.058-.022-.01-.005-.019-.008-.029-.012-.015-.018-.03-.035-.046-.052-1.862-1.711-3.625-3.548-5.251-5.445-.313-.367-.855-.433-1.249-.153-.678.504-1.355 1.004-2.026 1.489-.228.167-.367.428-.38.71-.012.281.103.555.315.741 1.889 1.644 3.973 3.078 6.228 4.149l2.685 1.286c.246.118.529.123.778.015.25-.11.439-.322.518-.581zm138.05-359.14c.127-.496-.169-1.001-.664-1.133-1.166-.34-2.99-.463-4.569-.245-.552.077-.922.127-1.333.149-.32.016-.609.195-.766.475-.157.279-.159.619-.007.9.199.352.396.652.546.919.188.343.569.532.955.475.421-.059.821-.113 1.235-.154 1.337-.134 2.431-.335 3.223-.517.317-.072.523-.131.753-.208.309-.097.547-.347.627-.661zm-143.93 359.86c.055-.21.034-.431-.057-.627-.252-.551-.67-1.036-1.283-1.609-.611-.571-1.369-1.116-2.095-1.592-.445-.292-.646-.369-.798-.447-.396-.202-.88-.096-1.155.253-.276.35-.267.845.022 1.184.564.674 1.498 1.575 2.892 2.643.47.358.808.604 1.137.78.251.132.549.144.809.029.261-.114.455-.34.528-.614zm79.899-205.55c.133-.466-.112-.956-.565-1.127-1.506-.607-3.017-1.017-4.5-1.191-1.885-.222-2.99-.309-3.94.035-.405.147-.812.474-1.033.837-.244.402-.355.817-.455 1.333-.105.544-.311 1.075-.529 1.437-.235.391-.321.428-.409.444-.674.116-.898.482-1.143.861-.234.362-.436.836-.437 1.373 0 .385.119.856.352 1.245.277.461.649.783 1.193 1.239 1.074.898 2.911 2.118 5.989 3.989.229.139.506.174.763.094.256-.08.465-.266.574-.51 1.346-3.186 2.73-6.519 4.105-9.971.014-.029.025-.059.035-.088zm4.425-11.39c1.248-3.339 2.431-6.731 3.616-10.095.093-.275.053-.578-.109-.819-.163-.242-.428-.393-.718-.411-2.289-.136-4.579-.171-5.992.305-.735.248-1.378.631-1.855 1.052-.473.417-.882.844-.882 1.568 0 .139-.035.246-.218.384-.203.153-.468.271-.775.267-.67-.009-1.25.263-1.754.622s-.958.817-1.202 1.442c-.245.625-.28 1.299-.264 2.044.016.747.123 1.52.271 2.221.151.71.289 1.234.634 1.725.189.265.502.413.827.389s.614-.215.762-.505c.011-.023.022-.058.034-.087.015-.002.11-.023.29-.054.355-.061.883-.095 1.538-.069 1.238.05 2.963.275 4.769.592.434.078.863-.161 1.028-.571zm-13.662 33.011c.09-.378-.063-.772-.384-.989-1.816-1.244-3.554-2.261-5.146-2.887-1.275-.502-2.273-.702-3.264-.405-1.011.303-1.889 1-3.094 2.246-.762.786-1.426 1.522-1.935 2.028-.209.208-.394.348-.57.515-.21.2-.314.487-.283.776.032.289.196.546.445.697-.143-.083-.059.016.152.126.342.18.819.408 1.351.663.836.399 2.103 1.903 2.653 3.253.523 1.282 1.849 2.905 3.354 4.635.196.236.496.361.802.333.307-.027.58-.205.729-.472 1.004-1.873 1.914-3.63 2.615-5.05.802-1.626 1.647-3.435 2.508-5.293.027-.058.05-.117.067-.176zm21.493-55.416c1.136-3.501 2.165-6.932 3.14-10.248.085-.296.02-.614-.175-.852-.196-.238-.496-.364-.803-.337-2.182.194-4.377.774-6.683 1.813-1.516.684-3.031 1.415-4.233 2.068-.594.324-1.092.612-1.52.882-.216.137-.399.276-.554.387s-.275.168-.433.333c-.894.936-1.393 1.982-1.492 3.041-.099 1.048.22 2.128.94 3.086.517.687 1.341 1.195 2.308 1.306 1.001.116 2.185-.065 3.92-.412 1.448-.29 3.058-.377 4.691-.412.411.003.774-.263.894-.655zm6-20.64c.767-3.049 1.41-5.941 1.927-8.608.056-.288.099-.568.139-.785.049-.282-.034-.571-.226-.784s-.471-.326-.757-.306c-3.942.321-7.244 1.29-8.832 3.187-.528.63-1.093 1.201-1.589 1.66-.239.222-.472.419-.652.55-.242.178-.202.155-.306.182-.269.07-.388.139-.607.266s-.474.304-.739.516c-.506.406-1.051.922-1.55 1.474-1.079 1.192-1.669 2.281-1.821 3.28-.149.98.329 1.952 1.091 2.441.824.529 1.895.69 3.196.58s2.854-.521 4.586-1.258c1.84-.783 3.615-1.34 5.402-1.711.359-.063.647-.331.738-.684zm39.72-101.98c.068-.287-.002-.588-.191-.815-.189-.226-.475-.35-.769-.333-.218.01-.488.008-.783.029-.328.022-.619.215-.768.507-.149.293-.133.642.042.92.086.138.135.195.129.185.237.38.711.538 1.129.375.184-.071.365-.135.584-.208.31-.095.547-.345.627-.66zm-78.475 199.43c.11-.356-.003-.744-.286-.984-2.74-2.343-5.21-4.129-7.111-5.066-.979-.484-1.739-.75-2.506-.713-.342.016-.736.104-1.042.431-.188.201-.381.706-.381 1.059 0 .376-.047.521-.1.599-.33-.122-.641-.201-.953-.138-.237.046-.738.406-.871.767-.146.399-.13.712-.119 1.162.011.448.066.992.151 1.67.083.642.241 1.261.53 1.818.146.279.308.523.487.728.179.204.335.4.694.541.019.007-.068-.063.076.063.166.145.254.238.292.282.204.23.462.573.75.999.557.822 1.201 1.938 1.77 3.109.488 1.001 1.094 1.946 1.791 2.882.185.246.48.384.788.37s.587-.178.75-.439c1.834-3.146 3.611-6.138 5.221-8.963.028-.059.052-.118.069-.177zm42.345-115.88c.003-.033.005-.065.005-.099.467-3.391.832-6.732 1.121-10.065.044-.333-.095-.664-.363-.866-.269-.203-.625-.245-.933-.111-1.694.69-3.511 1.656-5.075 2.678-.85.556-1.613 1.099-2.222 1.647-.61.551-1.056.983-1.311 1.635-.069.176-.304.478-.725.823-.403.331-.916.647-1.41.858-.651.277-1.208.685-1.645 1.202-.436.515-.742 1.071-.742 1.723 0 .751-.216 2.008-.451 2.609-.138.352-.227.67-.23 1.018-.003.357.247.787.349.908.502.598 1.111.643 1.919.583 1.577-.114 3.873-.893 7.115-2.315 1.467-.644 2.787-1.146 4.01-1.585.291-.104.51-.345.588-.643zm-54.364 136.38c.068-.285 0-.585-.186-.811-.546-.694-1.103-1.374-1.641-2.152-1.576-2.281-3.081-3.83-4.635-4.533-.757-.343-1.559-.481-2.318-.337-.758.145-1.443.563-1.999 1.164-1.017 1.099-1.521 2.423-1.494 3.644.028 1.207.663 2.378 1.774 3.01.479.273.898.584 1.115.839.099.116.133.184.182.306-.373 1.019-.058 2.065.449 3.397.462 1.214 1.178 2.623 2.067 4.064.173.272.474.436.797.432.322-.004.621-.173.787-.449 1.685-2.804 3.342-5.586 4.97-8.324.057-.076.101-.16.132-.25zm55.835-151.71c.011-.065.014-.131.01-.197.17-2.785.322-5.492.381-8.174.018-.335-.146-.655-.43-.835-.285-.181-.643-.195-.94-.036-1.604.842-3.228 2.088-5.604 4.114-1.931 1.646-3.514 3.659-4.376 5.435-.431.889-.661 1.678-.679 2.419-.009.373.002.682.193 1.049.157.302.471.621.841.766.167.063.348.075.522.037.006-.001.029-.015.041-.018.005-.001.017.014.029.011.008-.002.023-.012.041-.018.013-.002.027-.015.041-.018.014-.005.027-.011.041-.018.011-.006.023-.008.041-.018.142-.028.27-.044.44-.096.457-.138 1.034-.336 1.713-.604 1.359-.537 3.155-1.327 4.992-2.207.755-.362 1.46-.688 2.168-.997.259-.107.455-.326.535-.595zm-66.756 169.92c.062-.27 0-.552-.168-.771-1.206-1.627-2.516-3.294-3.742-4.586l-4.018-4.224c-.196-.209-.478-.316-.764-.29-.285.026-.542.181-.698.422l-1.246 1.896c-.434.649-.816 1.368-1.046 2.074-.231.707-.345 1.247-.167 1.881.075.263.067.537.023.713-.016.065-.061.142-.109.192-.223.235-.308.567-.225.881.082.312.322.56.631.654.309.101.662.165 1.186.229.708.087 1.02.22 1.14.346-.006-.008.051.102.053.121.004.061-.003.181-.079.372-.225.575-.218 1.155-.155 1.853.064.696.22 1.479.464 2.329.438 1.527 1.159 3.196 1.956 4.692.165.284.466.461.795.466s.635-.163.807-.443c1.741-2.846 3.454-5.631 5.229-8.558.058-.075.102-.159.133-.249zm-11.313 18.526c.044-.201.021-.411-.068-.597-.566-1.299-1.122-2.614-1.572-3.871-1.313-3.665-2.109-5.692-3.015-6.785-.23-.277-.527-.497-.742-.592-.398-.177-.61-.159-.958-.039-.7.239-.944.69-1.354 1.315-.389.592-.491 1.26-.438 1.977.053.711.313 1.391.699 1.985.519.796.628 2.511.212 3.572-.576 1.471-.755 3.883-.543 5.761.148 1.317.758 2.945 1.514 4.62.139.309.436.518.774.546.337.026.664-.131.852-.413 1.479-2.362 2.911-4.646 4.508-7.229.055-.077.1-.161.131-.25zm78.462-205.31c.03-.092.044-.188.044-.285-.057-2.477-.199-4.826-.348-7.083-.023-.318-.208-.602-.489-.753-.282-.151-.62-.147-.898.009-2.958 1.688-5.642 3.982-7.374 6.577-.772 1.157-1.611 2.286-2.35 3.174-.367.441-.722.826-1.007 1.116-.294.298-.48.44-.6.503-.549.297-.985.802-1.081 1.389-.096.59.073 1.182.431 1.813.226.399.467.732.791.98.269.207.716.386 1.158.386.92 0 1.737-.427 3.125-1.125.943-.475 1.862-1.025 2.583-1.54.352-.251.66-.476.917-.715.119-.111.206-.222.293-.321.088-.099.179-.134.288-.391.166-.389.643-.92 1.393-1.501.707-.548 1.624-1.102 2.657-1.645.232-.121.401-.335.467-.588zm-9.77 20.841-.063.076c.028-.056.051-.114.068-.174-.009.047-.005.098-.005.098zm-78.385 199.97c.055-.209.035-.431-.057-.626-.395-.887-.797-1.784-1.204-2.754-1.148-2.736-2.278-5.258-3.187-7.12-.456-.936-.856-1.687-1.171-2.237-.168-.295-.333-.524-.44-.676-.012-.02-.004-.022-.018-.04-.193-.269-.513-.416-.841-.385-.33.029-.618.23-.759.53-.045.08-.125.298-.142.447-.06.557.024 1.164.188 1.92.13.593.173 1.701.085 2.953-.086 1.241-.275 2.605-.541 3.781-.419 1.856-.56 3.373-.241 5.074.312 1.66 1.019 3.516 2.209 6.101.144.311.446.519.788.54s.668-.146.85-.437c1.347-2.099 2.661-4.146 4.348-6.821.058-.077.102-.161.133-.25zm87.5-231.74c.028-.106.037-.216.026-.325-.215-2.283-.479-4.363-.783-6.314-.049-.322-.264-.594-.565-.719-.3-.125-.645-.083-.908.109-3.121 2.197-5.864 4.741-6.796 7.072-.413 1.033-1.412 2.377-2.045 2.824-.948.669-1.6 1.313-1.946 2.057-.327.702-.308 1.528.062 2.071.384.563 1.092.859 1.904.879.83.021 1.762-.231 2.809-.746.679-.335 1.702-1.033 2.893-1.989 1.181-.947 2.484-2.086 3.679-3.225.46-.438.905-.853 1.36-1.246.146-.115.254-.271.31-.448zm-96.697 246.06c.065-.217.049-.449-.045-.655-1.179-2.606-2.027-5.127-2.303-6.976-.18-1.21-.533-2.501-.903-3.609-.372-1.117-.746-1.999-1.221-2.625-.417-.552-.78-.969-1.262-1.232-.294-.161-.803-.166-.773-.169-.362.039-.669.287-.784.633-.173.508-.087.838-.003 1.207.087.376.218.805.531 1.215.099.129.1.169.1.173-.003-.02-.021.068-.046.116-.092.175-.309.383-.877.697-.342.189-.577.357-.756.476-.337.217-.499.625-.4 1.014.1.39.437.672.836.701.152.011.324.006.633.013.603.013.819.108.889.214.112.168.162.535.033 1.288-.205 1.198-.603 3.493-.868 5.131-.31 1.919.487 4.545 1.679 7.369.129.289.397.494.711.542.314.049.631-.066.84-.304.861-1.011 1.68-1.989 2.301-2.791.352-.454.896-1.206 1.557-2.176.055-.078.1-.162.131-.252zm-8.289 9.944c.04-.187.023-.382-.051-.558-.658-1.786-1.289-3.616-1.887-5.638l-.851-2.884c-.122-.408-.503-.683-.928-.666-.424.015-.785.315-.877.731l-.648 3.37c-.701 3.685-.829 6.6-.187 9.392.072.345.332.62.673.711s.705-.018.938-.282c1.22-1.271 2.439-2.519 3.587-3.764.112-.115.191-.257.231-.412zm103.72-265.02c.035-.143.036-.292.002-.435-.125-.658-.231-1.333-.374-1.959-.173-.755-.393-1.614-.634-2.497-.082-.305-.313-.548-.613-.646-.301-.097-.631-.036-.876.164-1.201.955-2.301 1.971-3.188 2.913-.887.943-1.567 1.775-1.907 2.643-.173.443-.607 1.157-1.216 1.907-.613.755-1.354 1.551-2.05 2.15-.639.552-1.116.937-1.471 1.27-.327.291-.407.77-.194 1.151.213.382.664.564 1.082.438.149-.044.378-.089.753-.208.809-.257 1.965-.916 3.509-1.848 1.545-.933 3.344-2.138 5.07-3.351.622-.437 1.167-.783 1.732-1.168.185-.124.317-.31.375-.524zm-1.721-6.748c.047-.18.04-.37-.021-.545-.386-1.214-.819-2.497-1.287-3.826-.1-.28-.327-.496-.612-.581s-.594-.029-.831.15c-1.4 1.021-2.614 2.054-3.436 3.119-.882 1.145-1.353 2.285-1.135 3.415.025.129-.019.33-.186.733-.144.346-.399.743-.677 1.043-.215.233-.301.349-.409.444-.005-.037-.014-.074-.024-.11-.101-.255-.165-.314-.171-.335-.182-.416-.638-.641-1.079-.531-.441.109-.739.521-.706.974.028.133.064.252.137.422.115.269.154.285.118.214.045.087.105.167.176.237.017.095.049.187.095.272.021.036.046.084.1.173.164.274.286.475.353.642.101.25.307.443.563.531.255.087.536.059.77-.077 2.37-1.401 5.486-3.621 7.319-5.323.222-.207.427-.413.634-.591.145-.116.253-.273.309-.45zm-109.74 279.81c.037-.158.031-.321-.015-.476-.306-1.229-.533-2.434-.659-3.547-.191-1.69-.646-3.624-1.271-4.727-.149-.264-.324-.446-.305-.421-.188-.233-.476-.361-.774-.346-.299.017-.572.175-.734.426.05-.069.11-.124.063-.075-.016.017-.051.073-.074.104-.063.084-.144.177-.184.298-.293.877-.426 2.279-.684 4.833-.268 2.653-.186 4.628.181 6.48.071.331.315.598.64.696.323.1.675.015.919-.22.881-.853 1.746-1.734 2.639-2.625.119-.107.208-.246.258-.4zm-6.328 6.047c.027-.12.031-.245.009-.366-.333-1.958-.586-3.937-.634-5.752-.026-.952-.142-1.82-.297-2.499-.076-.335-.166-.607-.291-.886.005.016-.058-.14-.071-.161-.156-.282-.446-.463-.767-.479s-.628.134-.812.397c-.13.182-.315.461-.47.856-.282.725-.506 1.674-.716 2.773-.427 2.234-.226 4.969.283 7.763.068.318.298.579.606.686s.649.045.9-.163c.64-.532 1.28-1.083 1.978-1.709.139-.122.236-.283.282-.46zm114.07-291.71c.04-.186.023-.381-.051-.557-.201-.542-.258-.751-.415-1.169-.17-.451-.654-.698-1.119-.572.036-.022.057-.042.092-.065.394-.246.546-.745.357-1.169-.157-.346-.318-.709-.443-1.012-.104-.259-.318-.458-.583-.542-.266-.084-.555-.046-.789.106-2.049 1.311-3.994 2.838-5.601 4.62-1.06 1.175-1.808 2.082-2.267 2.704-.043.059-.06.096-.086.134-.236.366-.188.846.115 1.158.304.312.783.371 1.154.145.129-.086.292-.169.542-.358.755-.568 1.744-1.435 3.011-2.546.901-.791 2.317-1.708 3.707-2.61-2.788 1.917-4.796 3.803-5.517 5.861-.062.178-.078.347-.09.401-.063.323.047.654.292.874.244.22.586.294.9.197-.065.021.136-.002.394-.148.815-.461 1.976-1.42 3.738-3.034.703-.642 1.472-1.283 2.284-1.891.184-.127.316-.313.375-.527zm-118.63 295.4c.035-.144.037-.292.002-.436-.232-1.017-.456-2.087-.656-3.21-.21-1.183-.431-2.262-.644-3.07-.103-.396-.196-.731-.303-1.025-.029-.081-.037-.089-.018-.04-.122-.305-.396-.522-.72-.573-.324-.052-.65.071-.861.323.028-.034-.041.007-.104.094-.19.257-.412.624-.59 1.078-.774 1.978-.519 4.788.11 7.862.049.254.203.477.422.614.22.137.488.176.738.108.224-.066.568-.143.978-.355.423-.22.847-.542 1.271-.845.185-.126.317-.312.375-.525zm-5.238.264c.035-.129.042-.264.021-.395-.111-.662-.25-1.375-.31-1.866-.095-.787-.099-1.351-.064-1.636.089-.718.093-1.427-.044-2.031-.067-.296-.158-.53-.278-.746-.12-.217-.198-.447-.661-.628-.176-.069-.413-.11-.679-.064-.267.045-.492.212-.59.306-.236.228-.261.335-.333.508-.071.171-.123.381-.169.604-.172.824-.162 1.856-.059 3.064.016.212.103.411.248.566.01.004.019.008.029.012.053.244.102.582.31 1.095.222.543.553 1.064.94 1.542.217.281.575.415.923.345s.626-.332.716-.676z"/>
  <radialGradient id="b" cx="44.094" cy="167.72" r="238.2" gradientTransform="rotate(111.38 99.5 99.504)" gradientUnits="userSpaceOnUse">
    <stop offset="0" stop-color="#a9173c"/>
    <stop offset="1" stop-color="#7c102c"/>
  </radialGradient>
  <path fill="url(#b)" d="M-17.079-107.93c.084-1.471.176-1.479.543-.051.383 1.489.604 1.546 1.637.428.658-.71 1.108-1.747 1.001-2.304-.65-3.383 7.637-9.265 16.15-11.465 2.667-.689 3.168-1.095 1.966-1.591-2.754-1.135-11.256 2.742-16.466 7.511-3.501 3.203-4.756 3.923-4.232 2.428 1.033-2.948 4.928-6.105 11.203-9.081 2.928-1.388 4.981-2.659 4.563-2.823-1.477-.578-10.954 4.482-14.926 7.969-5.071 4.45-5.797 4.284-1.604-.367 5.625-6.238 15.449-10.127 20.545-8.132 1.414.553 2.862-.164 5.338-2.639 3.498-3.497 5.589-4.251 3.354-1.21-1.771 2.408-.784 1.807 4.334-2.641 3.642-3.164 5.567-3.986 10.607-4.524 4.405-.472 5.284-.378 3.089.327-3.511 1.128-2.564 1.878 1.636 1.298 1.559-.216 3.621-.101 4.581.254.961.355-.896.913-4.125 1.238-6.788.684-9.766 2.268-14.517 7.723-3.331 3.825-3.99 4.21-5.915 3.456-.512-.2-1.076.007-1.254.462-.814 2.081 4.191 1.054 7.058-1.448 7.263-6.34 17.053-9.021 23.363-6.397 2.695 1.121 2.699 1.146.164.933-3.487-.292-8.707.363-12.145 1.524-2.576.87-10.941 8.152-11.756 10.234-.802 2.049 1.323 1.261 3.645-1.351 2.963-3.333 10.696-7.296 15.054-7.715 3.292-.316 9.888 1.797 9.41 3.016-.157.401-2.04.671-4.186.601-2.145-.07-6.545.895-9.777 2.144-4.761 1.84-6.645 3.266-9.915 7.504-3.115 4.038-4.221 4.91-4.839 3.816-.571-1.008-1.709-1.312-3.945-1.052-1.728.201-4.374.157-5.879-.099-3.403-.578-6.601.835-14.571 6.437-3.432 2.413-7.242 4.705-8.465 5.093-2.137.678-2.119.614.456-1.608 1.475-1.272 3.028-3.201 3.452-4.286 1.174-2.999 8.74-8.816 12.988-9.985 2.077-.572 5.74-.867 8.14-.657 4.612.405 8.574-.781 5.989-1.793-.767-.3-2.117-.156-3 .32-.882.477-3.367.492-5.521.035-4.633-.983-9.799.943-14.677 5.473-1.888 1.753-5.355 4.274-7.705 5.601.522-.288-1.242-2.137-.846-2.606zm33.05-19.481c1.782-1.688 5.038-3.907 7.235-4.93 2.196-1.024 3.849-2.184 3.672-2.578-.554-1.232-8.324 2.609-10.722 5.302-3.624 4.066-3.751 5.584-.185 2.206zm-150.56 299c.49.192.76 1.42.599 2.728s.628 5.755 1.752 9.882c1.765 6.471 1.778 6.964.097 3.586-3.125-6.281-4.761-17.102-2.448-16.196zm4.412-1.425c.215.084.729 2.059 1.144 4.388 1.514 8.506 4.039 14.401 7.82 18.261 2.518 2.57 3.581 4.435 3.151 5.531-1.713 4.375 5.445 16.466 14.85 25.08l2.763 2.531-4.521-2.147c-8.354-3.969-14.709-12.725-15.37-21.172-.175-2.229-.674-3.629-1.11-3.111-1.009 1.194-.091 5.966 2.353 12.23l1.911 4.901-2.35-3.586c-2.228-3.399-5.348-13.734-4.67-15.468.174-.445.932-.568 1.683-.273 2.498.978 1.425-2.345-1.321-4.092-4.559-2.9-9.209-16.868-7.267-21.83.299-.767.72-1.327.934-1.243zm4.911-5.435c.38.148.731 1.748.779 3.555.199 7.407 2.972 16.745 5.954 20.05 1.651 1.829 3.646 3.578 4.433 3.887.958.375 1.092 1.43.404 3.188-1.877 4.796 4.858 15.102 13.92 21.298 5.899 4.034 5.956 5.521.121 3.237-8.96-3.509-16.241-13.001-16.687-21.76-.235-4.633-.771-6.009-2.885-7.409-4.573-3.029-8.776-15.617-7.48-22.401.411-2.153 1.06-3.794 1.441-3.645zm5.87-4.878c.497.879 1.052 2.911 1.234 4.517.915 8.104 6.786 19.443 10.908 21.069 1.337.527 1.436 1.154.43 2.737-.999 1.573-.749 3.257 1.074 7.213 1.944 4.219 4.006 6.491 11.315 12.465 4.916 4.018 9.133 7.715 9.374 8.217s-3.425-.668-8.145-2.601c-5.978-2.447-9.421-4.393-11.348-6.409-3.32-3.478-7.137-11.293-6.415-13.138.285-.728.127-1.477-.35-1.663-.478-.188-.562-1.517-.186-2.954.429-1.635.088-2.983-.908-3.604-1.728-1.076-2.974-2.984-6.711-10.276-1.893-3.691-2.294-6.13-1.807-10.959.517-5.093.793-5.924 1.535-4.614zm13.55-23.053c.748.988 1.641 3.687 1.985 5.996.805 5.412 6.116 15.375 10.317 19.354 2.476 2.345 3.166 3.776 2.809 5.834-.352 2.024.373 3.588 2.806 6.062 4.059 4.125 13.753 11.548 18.094 13.853 3.65 1.938 7.289 6.375 6.003 7.322-.464.342-1.142.233-1.505-.241-.364-.475-.836-.414-1.051.135-.28.715-.829.492-1.936-.784-1.163-1.34-2.365-1.771-4.854-1.74-3.661.046-16.127-4.252-16.396-5.652-.094-.487-1.341-2.112-2.772-3.61-1.431-1.499-2.551-3.581-2.488-4.627s-.617-2.487-1.512-3.202c-1.101-.881-1.251-1.758-.466-2.715 1.967-2.402 1.298-4.736-2.115-7.379-4.166-3.225-9.187-13.414-8.55-17.352.263-1.631.647-3.947.853-5.146.273-1.594-.125-2.192-1.477-2.221-1.582-.034-1.592-.182-.073-1.022 1.196-.662 1.534-1.302 1.034-1.956-.409-.535-.592-1.362-.406-1.838.186-.478.951-.059 1.7.929zm-5.847 17.465c3.601 12.179 8.281 20.073 12.99 21.917 1.043.408 1.675 1.309 1.404 2.002-1.448 3.698 6.227 13.773 16.838 22.108 6.69 5.253 6.777 5.357 5.563 6.671-.806.872-1.348.637-3.217-1.397-1.815-1.977-2.838-2.439-5.335-2.408-3.55.045-10.316-3.93-14.914-8.763-3.154-3.314-6.307-11.078-5.419-13.346.548-1.4-.675-2.94-3.232-4.071-.503-.224-1.015-.766-1.137-1.206-.122-.441-1.478-2.87-3.014-5.397-3.225-5.307-3.868-9.121-2.632-15.616l.881-4.632 1.224 4.138zm-16.145 38.917c.767.3 1.867 1.189 2.444 1.975.932 1.271.893 1.369-.346.885-.768-.301-1.868-1.19-2.444-1.977-.933-1.271-.894-1.369.346-.883zM-14.888-92.6c.79-.558 1.81-1.947 2.265-3.088 1.461-3.657 8.855-9.254 13.879-10.505 2.646-.659 7.729-1.034 11.296-.833 5.908.333 6.769.08 9.656-2.849 1.744-1.768 3.259-3.417 3.367-3.663.535-1.217 7.873-3.71 13.034-4.427 6.446-.895 6.917-.81 9.809 1.776 2.716 2.43 1.02 4.039-3.81 3.615-2.117-.186-6.807.713-10.421 1.998-8.244 2.929-14.049 7.284-15.202 11.403-.966 3.45.521 5.435 2.46 3.283 2.148-2.383 13.018-7.695 17.242-8.426 3.042-.526 4.901-.204 7.906 1.373 2.754 1.445 3.874 1.687 3.745.807-.123-.841.068-.75.579.275.418.841 1.423 1.539 2.232 1.55s1.388.228 1.289.483c-.315.805-8.624 1.927-13.022 1.758-8.716-.334-19.858 5.521-22.28 11.708l-1.413 3.608-.926-2.818c-.796-2.422-1.293-2.794-3.524-2.642-1.429.098-4.98.296-7.892.441-4.934.245-12.919 3.929-13.994 6.456-.232.545-1.926 1.747-3.763 2.672-2.743 1.379-3.51 1.384-4.279.024-.636-1.124-.507-1.889.401-2.378.735-.397 2.619-2.642 4.185-4.988 3.522-5.276 11.221-9.425 17.091-9.21 2.259.083 5.319.138 6.8.123 1.48-.015 3.018.061 3.418.169s.848-.11.995-.486.382-.994.521-1.373.115-1.367-.054-2.195c-.252-1.23-1.34-1.581-5.939-1.911-7.084-.509-11.589 1.177-17.047 6.383-2.364 2.253-5.234 4.558-6.378 5.122-3.955 1.948-5.79-.719-2.226-3.235zM-98.48 122.67c.444.168 2.68 4.77 4.968 10.225 4.44 10.586 7.875 15.819 11.251 17.147 1.581.622 1.884 1.352 1.243 2.989-.467 1.191-.441 2.886.056 3.765 1.064 1.881 20.507 14.409 22.4 14.435.713.01 1.403.563 1.53 1.231.128.668 1.229 1.604 2.448 2.081 1.218.477 2.319 1.412 2.447 2.079.35 1.823-3.958 2.647-6.144 1.174-1.054-.71-3.468-1.143-5.364-.961-5.67.546-18.657-6.172-22.299-11.535-.979-1.438-2.147-2.46-2.598-2.268-.451.191-.358-.851.207-2.314 1.395-3.623.976-4.944-2.649-8.355-1.709-1.607-4.473-5.868-6.141-9.466-2.498-5.391-2.856-7.322-2.036-10.955.548-2.425.744-5.572.434-6.993-.308-1.423-.198-2.448.247-2.279zm9.295-12.377c1.527-2.322 2.379-1.298 4.994 6.003 3.197 8.926 9.527 19.232 11.999 19.536 1.273.157 1.933 1.06 2.041 2.794.149 2.395.656 2.757 7.795 5.552 11.575 4.532 23.008 11.996 22.064 14.407-.245.626-2.057.784-4.025.354-1.969-.431-4.616-.402-5.883.063-2.756 1.013-17.884-4.026-23.629-7.871-2.257-1.512-4.116-2.241-4.993-1.961-1.008.322-.951-.855.203-4.232 1.828-5.346 1.845-5.188-.724-6.665-1.061-.609-2.235-1.789-2.608-2.621-.375-.831-1.081-1.669-1.57-1.86-1.683-.659-5.29-7.44-5.649-10.622-.198-1.752.04-4.208.529-5.458.489-1.249.35-3.101-.309-4.113-.658-1.015-.765-2.502-.235-3.306zm8.382-15.528 1.474-2.208 4.281 4.512c2.355 2.481 5.292 6.418 6.526 8.748 1.235 2.33 3.588 5.726 5.23 7.545 3.599 3.988 4.151 3.637 6.787-4.307 1.534-4.62 1.546-5.628.079-6.512-5.404-3.255-13.089-14.506-11.93-17.468.167-.427-.548-1.262-1.59-1.854-1.89-1.076-1.936-3.719-.101-5.703 1.98-2.142 4.87-.816 7.952 3.646 1.676 2.425 3.494 4.584 4.042 4.799.546.214.85.761.672 1.214-.561 1.432 6.198 9.053 8.253 9.306 1.438.177 1.882.885 1.664 2.654-.349 2.837-.804 2.603 7.383 3.808 7.214 1.062 24.69 7.75 25.991 9.946 1.255 2.124.104 3.775-2.445 3.507-2.691-.285-4.054-.27-14.035.153-7.385.313-17.837-1.15-22.022-3.084-2.825-1.305-3.754-.573-5.04 3.963l-1.039 3.67 14.173 5.594c12.066 4.763 14.46 5.989 16.096 8.247 1.801 2.486 1.787 2.687-.22 3.196-1.177.298-2.866.259-3.751-.088s-3.372-.054-5.523.65c-2.856.935-5.292.865-9.018-.254-3.84-1.155-5.104-1.175-5.104-.082.001.799-.476 1.266-1.058 1.038-.583-.229-1.059-1.088-1.06-1.911 0-1.083-1.629-2.125-5.89-3.765-5.076-1.955-6.128-2.051-7.615-.696-1.394 1.271-1.309.473.441-4.147 2.205-5.819 2.098-6.238-1.868-7.336-.985-.272-2.265-1.661-2.846-3.084-.58-1.423-2.012-3.659-3.181-4.97-2.554-2.862-4.991-9.413-4.227-11.364.382-.977-.104-1.484-1.599-1.667-1.181-.145-1.806-.41-1.389-.587.418-.178.596-.903.396-1.613-.199-.709.3-2.283 1.111-3.496zm70.702-167.38c5.318-4.534 6.976-5.289 12.1-5.508 2.382-.102 4.467-.534 4.633-.959.167-.425 1.077-.469 2.024-.099 3.556 1.392 8.491 1.027 8.491-.628-.001-1.3.173-1.292.928.041.773 1.366 1.53 1.114 4.513-1.5 9.95-8.721 22.289-10.843 27.583-4.743 1.158 1.334 1.547 1.347 2.048.066.472-1.206.777-1.227 1.289-.091.841 1.874-3.468 3.725-9.887 4.248-7.556.615-18.112 5.719-22.996 11.119-4.077 4.506-4.432 4.679-6.511 3.165-2.51-1.828-11.613-3.764-12.08-2.571-.17.435-.759.614-1.309.399-.548-.215-3.985 1.041-7.635 2.791s-6.964 3.053-7.365 2.896c-1.844-.721.441-5.444 4.174-8.626zm-5.951 17.074c1.102-.469 2.208-1.372 2.457-2.007.802-2.05 8.112-6.25 11.433-6.569 3.458-.333 6.051.193 12.524 2.538 3.834 1.389 4.131 1.329 4.543-.937.244-1.332.715-2.065 1.049-1.629s.376 1.384.093 2.106-.195 1.423.195 1.557c1.258.433 4.9-.872 5.303-1.9.215-.549 3.45-2.339 7.188-3.979 6.878-3.017 14.265-3.579 19.598-1.491 1.34.525 3.133.659 3.982.298 1.201-.511 1.308-.055.484 2.05-.965 2.466-2.091 2.865-12.614 4.468-10.674 1.625-20.042 4.978-21.041 7.53-.229.584-1.542 1.477-2.921 1.983-1.378.506-2.774 1.57-3.103 2.363-.51 1.234-.644 1.157-.921-.523-.339-2.061-2.78-3.638-3.355-2.168-.184.47-1.646.083-3.251-.858-3.782-2.22-7.743-1.776-15.836 1.776-6.427 2.821-9.268 3.022-8.316.591.278-.711.506-1.979.506-2.819 0-.841.901-1.912 2.003-2.38zm-5.634 19.156c.956-1.055 2.12-2.018 2.588-2.14s1.746-1.291 2.839-2.596c2.604-3.109 12.289-4.003 20.011-1.846 4.518 1.262 5.81 1.244 6.792-.092 1.186-1.611 1.213-1.597 1.186.626-.016 1.252.304 2.393.709 2.537s3.419-1.459 6.697-3.56c9.232-5.917 12.638-6.489 21.96-3.691 6.588 1.978 7.792 2.584 7.354 3.704-.649 1.659-5.027 3.35-9.728 3.758-10.421.904-19.881 4.421-26.762 9.95-2.021 1.625-3.918 2.859-4.214 2.743s-.59-1.295-.654-2.621c-.102-2.122-.686-2.588-4.892-3.904-5.739-1.795-11.485-1.414-17.553 1.167-6.725 2.858-10.435.496-6.333-4.035zm-37.643 95.573c.495.193.9-.334.9-1.172-.001-2.972 7.552 1.766 15.031 9.427 3.965 4.062 7.631 7.108 8.233 6.841.597-.266 1.745-1.643 2.553-3.06.941-1.654.853-.863-.245 2.206-.942 2.631-1.441 5.14-1.108 5.576.333.435 4.164 1.074 8.512 1.42 4.349.348 8 .838 8.115 1.093.114.254 3.321 1.057 7.125 1.784 7.365 1.407 11.787 3.95 10.882 6.261-.771 1.97-17.894 2.354-38.143.859-3.268-.242-5.19.151-5.654 1.157-.439.951-.634.563-.519-1.033.101-1.405.825-3.597 1.608-4.871.93-1.513 1.031-2.616.292-3.181-.623-.476-3.568-2.66-6.543-4.853-3.658-2.696-6.091-5.39-7.515-8.316-1.157-2.38-2.595-4.521-3.194-4.755-.6-.235-1.214-1.39-1.363-2.566-.339-2.66-.116-3.267 1.033-2.817zm33.565-78.22c.579-.605 3.513-2.21 6.521-3.565 6.374-2.873 11.683-2.465 18.948 1.458 4.195 2.264 4.777 2.356 5.424.86.632-1.462.73-1.385.764.596.051 2.899 1.388 4.693 2.114 2.836.306-.782.975-1.257 1.486-1.057s1.096-.058 1.298-.575c.411-1.048 8.11-3.977 11.824-4.499 2.203-.309 17.872.393 19.048.853.279.109.32.48.092.825s-.376 1.475-.327 2.512c.106 2.295-2.175 3.663-6.838 4.098-1.882.175-8.141 1.279-13.908 2.452C9.416-9.945 1.226-6.21.888-3.208.775-2.205.398-1.756.05-2.21c-.347-.455-.463-2.274-.256-4.043.332-2.84-.034-3.417-3.133-4.929-4.532-2.212-11.681-2.975-17.319-1.85-3.423.684-4.737.528-5.638-.668-1.286-1.711-1.095-3.629.532-5.332zm-22.128 59.316c2.365-2.44 3.191-2.691 5.664-1.718 3.791 1.492 8.59 5.074 13.606 10.156 2.23 2.259 4.471 4.27 4.98 4.47 1.997.782 4.64-3.599 5.393-8.939.735-5.21.713-5.261-3.229-7.565-16.489-9.636-18.131-10.76-18.131-12.415 0-.789.459-1.513 1.021-1.61.562-.098 1.214-1.181 1.45-2.407.368-1.912 1.049-2.157 4.769-1.719 4.605.542 9.404 3.275 14.529 8.275 1.423 1.388 3.648 2.666 4.945 2.837 1.533.204 2.355.838 2.356 1.818 0 1.151 1.833 1.135 7.831-.073 11.504-2.316 25.346-.42 26.152 3.583.531 2.636-1.361 4.209-4.554 3.786-2.337-.311-9.807 1.081-12.082 2.25-.37.189-1.407.374-2.306.41-3.686.147-9.618 1.562-16.148 3.852-3.592 1.26-5.113 2.484-6.917 5.569-2.835 4.849-2.742 5.759.526 5.15 3.173-.591 12.399-.099 14.915.796 1.036.368 4.318.945 7.293 1.28 4.529.511 5.786.985 7.714 2.9 4.085 4.061 2.452 4.72-12.442 5.024-2.528.051-4.7.359-4.827.685s-2.208.399-4.622.163c-2.415-.236-7.016.115-10.227.781-9.033 1.873-10.345 1.505-10.137-2.838.181-3.727-.71-5.034-2.237-3.281-.624.718-1.176.362-2.064-1.333-.667-1.272-1.668-2.492-2.225-2.709-2.075-.813-7.987-7.226-9.039-9.808-.6-1.471-1.955-3.089-3.011-3.596-1.056-.506-1.874-.919-1.817-.918.056 0 1.349-1.285 2.871-2.856zm-67.185 177.83c.813.936 1.398 1.908 1.3 2.158-.098.251-.843-.311-1.656-1.247-.813-.938-1.397-1.908-1.299-2.159.097-.25.842.311 1.655 1.248zm85.298-216.35c.914.012 1.662-.556 1.661-1.264 0-.707 1.036-1.635 2.303-2.061 2.471-.833 10.629-.208 11.104.85.159.352 1.335.657 2.613.679 1.541.025 2.756.701 3.601 2.002 1.585 2.441 5.407 4.032 6.045 2.517.283-.67.732-.254 1.106 1.024.594 2.023.895 2.039 5.097.251 8.102-3.444 14.967-4.042 25.472-2.217 2.985.519 3.912 1.097 4.608 2.879.479 1.227.498 2.505.042 2.841-.455.336-7.409 1.642-15.452 2.902-15.991 2.506-22.91 5.29-25.919 10.425l-1.824 3.112.398-2.997c1.003-7.564.91-7.934-2.595-10.2-3.93-2.541-18.77-5.438-19.467-3.801-.72 1.688-1.813-3.503-1.114-5.288.363-.922 1.407-1.666 2.321-1.654zm-81.115 220.74c1.408.923 2.821 2.245 3.139 2.938.381.827-.128.719-1.484-.319-3.332-2.549-4.594-4.545-1.655-2.619zm126.05-309.64c.511.2.858.545.772.766s-.675.491-1.307.601c-.633.109-.981-.235-.773-.766.208-.53.796-.801 1.308-.601zm38.359-27.846c.969-.366 1.604-.264 1.412.228-.371.946-2.677 1.624-2.989.877-.101-.242.608-.739 1.577-1.105zm91.435 258.28c1.39-.153 3.93-.814 5.646-1.469 1.717-.655 4.288-1.035 5.714-.846 1.427.189 4.714-.093 7.304-.626 2.591-.533 6.609-.889 8.93-.79 2.321.1 6.076-.157 8.345-.568 3.978-.723 4.139-.675 4.541 1.368.229 1.165-.072 2.647-.671 3.294-.883.955-.237 1.507 3.428 2.932 2.483.966 6.448 2.733 8.811 3.927 3.705 1.872 5.769 3.276 11.403 7.762.763.607.402 1.172-1.384 2.164-6.54 3.632-7.014 3.678-11.827 1.128-2.514-1.332-7.548-3.653-11.186-5.158-5.166-2.137-6.401-2.965-5.642-3.786.666-.721.21-1.348-1.454-1.999-1.333-.522-2.584-.539-2.78-.038s-.738.762-1.204.579c-.466-.182-4.537-.121-9.046.137-4.51.258-8.615.306-9.123.106-.508-.198-1.876.293-3.038 1.092-1.509 1.037-2.402 1.063-3.117.094-.551-.748-2.467-1.934-4.257-2.635-2.839-1.111-3.17-1.601-2.586-3.831.486-1.862 1.356-2.634 3.193-2.837zm20.387-48.69c2.636-2.591 3.745-2.987 10.14-3.624 6.169-.614 17.557.292 24.589 1.957 3.293.78 5.035.64 6.292-.504 1.566-1.428 1.622-1.269.564 1.637-1.629 4.477-1.123 5.808 2.994 7.885 5.386 2.717 11.833 10.389 13.036 15.514 1.589 6.763.738 7.759-4.256 4.987-2.284-1.268-5.34-3.632-6.791-5.255-1.45-1.623-5.094-4.577-8.095-6.564-3.84-2.543-5.397-4.138-5.257-5.384.25-2.213.265-2.208-7.855-2.703-13.613-.832-25.095-2.989-26.504-4.98-.561-.794-.252-1.596 1.143-2.966zm29.51-.423c.428-.182-.037-.612-1.033-.957-1.1-.38-1.405-.251-.777.331.568.527 1.382.808 1.81.626zm20.179 14.205c.428-.182-.037-.612-1.032-.956-1.101-.381-1.406-.251-.778.33.567.526 1.382.807 1.81.626zm-2.711 3.557c.768.301 1.458.386 1.535.188s-.395-.84-1.05-1.429c-.653-.589-1.345-.673-1.534-.188-.191.487.282 1.13 1.049 1.429zm-74.414 59.14c2.52-1.522 6.574-2.399 12.761-2.761 4.987-.291 11.647-1.348 14.801-2.35 3.153-1.001 6.107-1.675 6.563-1.496.456.178 1.143-.38 1.526-1.241.456-1.022.683-.606.656 1.198-.035 2.299.536 2.999 3.387 4.146 1.887.758 6.979 2.861 11.317 4.674 4.338 1.812 8.799 3.364 9.91 3.449 2.655.204 4.78 2.899 2.616 3.319-.825.159-2.291 1.358-3.258 2.665-2.982 4.03-6.394 3.604-17.683-2.207-5.363-2.761-10.215-4.939-10.78-4.842-.564.098-1.136-.391-1.27-1.086-.153-.798-2.415-.397-6.129 1.083-8.283 3.302-15.595 5.208-17.35 4.521-.82-.321-1.653-.175-1.85.326-.471 1.203-4.1-.269-7.267-2.947-3.059-2.59-2.755-3.547 2.05-6.451zm19.876-51.524c1.396-1.729 3.467-3.282 4.604-3.452 1.137-.169 3.479-.819 5.202-1.445 1.725-.625 3.827-.866 4.674-.535.846.331 2.075.398 2.734.15.657-.25 4.485-.228 8.507.048 4.021.274 7.85.297 8.508.048 2.077-.786 3.64.426 2.921 2.263-.927 2.366-.163 3.17 5.076 5.349 6.424 2.671 11.995 7.354 12.729 10.701.604 2.746-1.901 8.514-3.844 8.85-.422.073-4.333-2.435-8.691-5.571-4.357-3.137-8.931-5.902-10.163-6.146-1.899-.374-2.084-.84-1.213-3.065.941-2.404.792-2.658-1.768-3.017-1.538-.216-3.838-.162-5.112.12-1.273.282-2.833.311-3.463.063-.631-.247-3.773-.05-6.983.438s-6.582.727-7.495.531c-.912-.194-2.766-.218-4.119-.054-2.753.335-5.565-.5-5.007-1.486.2-.357 1.507-2.062 2.903-3.79zM130.4 195.232c3.979-1.866 16.356-4.239 21.668-4.154 1.003.016 3.815-1.223 6.25-2.753s5.153-2.876 6.041-2.991c.887-.114 1.998-1.098 2.469-2.186.548-1.265.747-.508.551 2.101l-.305 4.077 7.065 2.415c3.985 1.362 9.61 2.482 12.903 2.572 3.21.086 7.068.403 8.572.704 2.311.463 2.612.861 1.942 2.571-.549 1.403-1.147 1.702-1.954.977-.902-.812-1.267-.447-1.625 1.62-.707 4.072-4.931 5.166-13.864 3.588-5.62-.993-8.94-2.12-13.091-4.446l-5.561-3.115-8.728 4.019c-11.705 5.389-21.383 5.414-26.021.068-1.904-2.196-1.629-2.575 3.688-5.067zm49.904-127.08c1.085-.009 4.093-.476 6.685-1.04 7.915-1.721 21.161-.563 31.454 2.749 3.162 1.018 3.176 1.056 1.396 4.247-2.004 3.587-1.611 4.932 2.199 7.542 2.903 1.99 10.971 10.725 12.612 13.656.606 1.085.758 2.857.335 3.938-.424 1.081-.279 3.167.319 4.636.636 1.558.614 2.753-.05 2.867-.627.108-.968-.24-.758-.775.255-.651-.341-.845-1.808-.584-1.847.328-2.952-.582-7.096-5.845-6.423-8.158-13.094-13.651-14.953-12.313-.886.637-.815-.354.212-3.007l1.533-3.958-4.181-.966c-2.299-.531-8.706-1.776-14.236-2.765-7.2-1.288-10.865-2.378-12.902-3.838-3.272-2.345-3.637-4.523-.761-4.544zm-54.824 154.52c2.398-1.21 6.084-2.307 8.19-2.438 8.178-.508 26.025-8.428 27.755-12.316.46-1.035.691-.588.661 1.279-.049 2.939 1.258 4.164 3.45 3.232.678-.288 4.044.299 7.479 1.305 4.054 1.188 8.471 1.644 12.59 1.299 3.617-.302 7.071-.008 8.033.685 1.542 1.11 1.495 1.379-.533 3.116-1.221 1.045-3.068 2.801-4.104 3.901-3.054 3.244-13.198 4.037-21.703 1.697-3.955-1.088-7.915-2.614-8.801-3.392-1.316-1.158-2.298-.887-5.422 1.5-10.663 8.15-23.564 10.207-29.44 4.693l-2.519-2.363 4.364-2.198zm69.829-175.17c.58.227 1.139-.481 1.266-1.606.147-1.308.686-1.833 1.535-1.5.72.282 1.431.199 1.581-.185.476-1.217 8.577-.985 15.04.429 7.098 1.553 13.63 3.943 17.487 6.398 2.286 1.454 2.505 2.128 1.643 5.051-.91 3.088-.656 3.687 3.007 7.099 5.603 5.216 8.539 10.377 10.422 18.316 1.509 6.36 1.558 11.928.06 6.801-.38-1.297-.881-1.811-1.148-1.176-.781 1.854-2.01.737-4.895-4.448-2.739-4.924-12.491-15.756-15.105-16.78-.766-.3-1.17-1.504-.899-2.678.718-3.109-3.289-5.405-18.457-10.576-7.155-2.439-12.912-4.687-12.792-4.994.118-.307.683-.375 1.255-.151zm17.289 3.265c3.328-.201 3.156-.836-.352-1.302-1.465-.195-2.584.055-2.488.554s1.374.835 2.84.748zm-.761-25.909c8.044-.807 11.991-.692 17.836.52 9.157 1.898 14.319 4.108 17.377 7.441 2.32 2.528 2.47 3.279 1.265 6.358-1.329 3.396-1.243 3.607 3.155 7.737 2.487 2.336 5.378 5.675 6.423 7.421 1.998 3.335 2.681 11.493 1.063 12.685-.521.384-.356 1.899.366 3.366 2.556 5.187-.194 3.208-3.594-2.586-5.902-10.058-8-13.002-11.814-16.58-2.857-2.68-3.552-4.003-3.07-5.853.951-3.658-5.004-8.066-17.856-13.219-5.701-2.285-11.104-4.804-12.008-5.598-1.627-1.428-1.619-1.443.857-1.692zm17.215 4.328c.456.179 1.357-.245 2.002-.941.979-1.059.866-1.168-.696-.669-2.127.681-2.502 1.142-1.306 1.61zm-103.96 216.5c1.528-.878 5.546-1.963 8.927-2.413 9.054-1.201 14.334-3.378 19.653-8.101l4.745-4.213 1.453 2.498c1.189 2.045 2.445 2.765 6.928 3.973 6.226 1.677 12.556 1.077 19.045-1.803 4.903-2.176 6.346-2.037 7.282.7.51 1.49.35 1.713-.886 1.229-.83-.325-1.679-.156-1.887.375-.208.53-.656.601-.996.156-.341-.444-1.228.881-1.973 2.943-1.121 3.105-2.026 3.994-5.255 5.158-5.351 1.928-14.888 1.547-21.57-.864-3.729-1.344-5.71-1.632-6.007-.873-.413 1.056-2.33 2.096-12.468 6.766-2.16.995-5.893 1.962-8.294 2.15-3.756.295-4.819-.004-7.591-2.131-4.278-3.285-4.358-3.684-1.106-5.55zm.425 20.193c1.189-.401 4.543-.873 7.45-1.049 4.921-.298 8.737-1.985 21.32-9.428 1.726-1.021 3.431-2.602 3.787-3.511.563-1.438.731-1.316 1.301.936.614 2.432.85 2.57 3.881 2.278 1.775-.17 4.231.084 5.46.564 3.264 1.277 9.421-.354 15.664-4.153 4.98-3.03 9.56-3.573 8.558-1.014-.208.531-.617.651-.91.27-.292-.383-.934.166-1.424 1.219-3.558 7.633-8.239 10.977-17.668 12.621-3.754.654-14.56-.927-15.598-2.282-.353-.461-1.955.376-3.559 1.86-2.877 2.661-8.046 5.59-14.652 8.3-4.119 1.689-13.158.597-15.28-1.849-1.773-2.043-1.155-3.807 1.67-4.762zm105.67-256.14c7.879-2.896 22.676 2.376 27.423 9.771 1.664 2.591 1.95 2.735 3.438 1.73 1.204-.814 1.014-.271-.744 2.12-2.701 3.671-2.188 5.275 2.887 9.033 6.576 4.869 10.131 13.859 7.907 19.997-.744 2.052-.862 4.608-.285 6.088.548 1.402.567 2.382.043 2.176-.525-.205-3.008-4.842-5.517-10.303-3.387-7.37-5.669-10.906-8.854-13.712-3.306-2.914-4.271-4.459-4.206-6.734.06-2.049-.946-3.954-3.284-6.225-4.074-3.957-12.489-9.215-17.078-10.671-4.161-1.32-4.63-2.205-1.73-3.27zm-104.28 273.94c1.265-.818 5.342-1.639 9.057-1.822 7.138-.354 10.479-1.582 15.389-5.659 1.656-1.375 4.117-3.186 5.47-4.025s2.357-2.101 2.232-2.804c-.132-.743.195-.554.781.454.711 1.222 2.685 2.178 6.709 3.25 5.396 1.438 6.132 1.331 13.751-1.981 4.426-1.926 8.662-4.353 9.411-5.394 1.896-2.634 5.094-3.108 6.002-.889.577 1.408.3 1.549-1.597.807-2.213-.867-2.343-.722-3.668 4.102-1.267 4.607-1.749 5.222-6.145 7.835-2.622 1.558-6.711 3.087-9.085 3.396-4.061.527-12.657-.855-15.85-2.551-.961-.51-3.279.875-7 4.184-3.059 2.721-6.4 5.239-7.426 5.599-3.748 1.312-14.983 1.642-15.662.459-.373-.65-1.576-1.697-2.675-2.326-1.896-1.09-1.88-1.221.306-2.635zm120.62-288.52c6.888-.15 8.743.297 15.682 3.775 5.599 2.807 7.008 3.971 8.72 7.203 1.125 2.122 2.721 4.121 3.549 4.445 1.093.428 1.17 1.442.283 3.708-1.065 2.721-.879 3.398 1.464 5.315 6.368 5.212 8.616 16.504 4.44 22.306-1.504 2.089-1.581 1.985-2.992-4.004-2.098-8.905-3.638-12.188-7.808-16.639-2.041-2.179-3.487-4.583-3.214-5.343.79-2.204-5.926-8.555-14.46-13.675-10.148-6.088-10.858-6.978-5.664-7.091zm9.514 8.206c.226.088.57-.25.767-.75s-.086-1.084-.628-1.297c-.542-.212-.887.126-.767.75.121.625.403 1.208.628 1.297zm21.014 27.142c.542.212.887-.126.767-.75-.12-.625-.402-1.208-.628-1.297s-.57.25-.767.75.086 1.084.628 1.297zm-146.12 269.18c2.082-.68 4.545-.941 5.474-.577 3.213 1.258 13.861-3.565 18.334-8.303 2.298-2.435 4.638-4.658 5.201-4.942.563-.283 1.029-1.283 1.038-2.221.012-1.484.153-1.463 1.102.173.931 1.608 1.9 1.94 6.734 2.299 6.891.513 10.101-.644 18.787-6.768 3.702-2.611 7.285-4.843 7.963-4.96 2.044-.354 2.546 2.152.558 2.789-1.191.381-2.052 1.725-2.641 4.123-.69 2.813-1.733 4.131-4.984 6.294-6.236 4.148-11.456 5.399-19.688 4.717l-7.479-.621-4.943 4.408c-9.283 8.28-15.604 10.301-24.942 7.978-5.905-1.469-6.035-2.58-.514-4.389zm132.68-315.87c8.121-.505 18.527 7.438 20.918 15.967.551 1.965 1.661 3.831 2.468 4.147.863.338 1.063 1.011.483 1.637-1.207 1.305-.232 3.715 1.828 4.522 2.093.819 7.02 11.272 7.066 14.99.051 4.115-.783 7.4-2.577 10.149-1.986 3.041-2.971 2.487-3.073-1.728-.208-8.656-3.109-16.091-8.375-21.464-2.283-2.33-3.032-3.875-2.522-5.202.7-1.817-2.24-8.679-5.161-12.046-.777-.895-4.526-3.671-8.331-6.169l-6.919-4.541 4.195-.262zm-129.07 327.7c.572-.354 2.913-.74 5.202-.86 7.412-.39 15.576-3.817 18.995-7.976 1.285-1.563 2.857-3.089 3.493-3.389.637-.3 1.463-1.328 1.837-2.284.455-1.162 1.07-1.387 1.857-.678.647.583 2.563.929 4.256.77 1.694-.159 4.255-.076 5.689.184 3.668.663 10.635-2.271 15.937-6.712 5.558-4.655 7.607-5.445 8.562-3.302.54 1.212.421 1.309-.544.444-1.004-.897-1.396-.477-2.109 2.262-1.302 5.002-3.047 6.902-9.167 9.978-5.329 2.68-11.9 3.943-17.282 3.324l-2.565-.295 1.754 2.029c1.321 1.526 2.407 1.997 4.399 1.904 1.454-.068 3.68.282 4.947.777 3.41 1.336 12.146-2.404 18.592-7.958 3.071-2.647 5.902-4.868 6.289-4.935.388-.067.11 1.595-.615 3.692-2.674 7.725-13.956 13.363-25.786 12.889-4.258-.172-7.273.298-8.315 1.293-.9.858-3.472 3.364-5.715 5.568-2.406 2.364-5.826 4.495-8.343 5.2-4.649 1.301-13.5 1.495-13.026.286.162-.414-.698-.875-1.911-1.024-3.962-.486-.454-1.758 5.673-2.055 6.812-.331 11.81-2.868 17.704-8.987 3.239-3.362 4.167-4.897 3.956-6.549-.42-3.298-2.271-2.74-7.966 2.4-6.271 5.659-13.528 8.735-19.105 8.099-7.048-.802-9.544-2.329-6.693-4.095zm140.96-336.2c8.229.016 17.997 6.874 22.109 15.523 3.034 6.382 3.094 6.453 3.836 4.558 1.553-3.967-9.991-21.253-15.683-23.481-.983-.385-1.37-1.01-.857-1.387 1.373-1.011 6.379 1.218 11.478 5.112 5.536 4.228 8.404 9.843 8.831 17.288.179 3.104.796 5.829 1.373 6.055 2.192.858 7.627 10.724 8.373 15.2.882 5.289.202 10.085-1.619 11.421-.856.628-1.39-.865-1.755-4.922-.56-6.193-3.603-15.897-5.18-16.515-.521-.204-1.848-1.721-2.949-3.371-2.117-3.174-3.048-3.313-4.578-.688-.656 1.126-.018 2.776 2.101 5.434 6.146 7.709 7.899 15.815 4.789 22.146l-1.679 3.418-.554-6.028c-.305-3.315-1.365-8.287-2.356-11.048-1.877-5.222-7.262-11.989-9.267-11.642-.703.122-.66-.334.108-1.166.918-.993.567-2.774-1.287-6.521-3.166-6.398-5.439-9.054-12.703-14.836l-5.724-4.556 3.193.006zm-125.07 353.1c1.678-.144 4.242-.09 5.697.119 4.638.668 12.894-4.048 16.39-9.361 1.697-2.581 2.983-5.229 2.856-5.89-.152-.788.524-.666 1.975.357 1.431 1.009 2.952 1.3 4.325.825 1.166-.4 3.409-.543 4.985-.313 3.67.532 12.613-3.415 17.67-7.799 5.131-4.449 6.101-4.494 4.423-.21-1.651 4.218-8.201 9.274-13.738 10.606-4.708 1.132-4.319 2.576.536 1.993 4.507-.541 11.599-4.793 15.006-8.998 2.785-3.438 4.656-4.708 5.189-3.521.641 1.424-4.491 7.182-8.835 9.911-2.406 1.512-4.259 3.011-4.115 3.329.513 1.141 10.175-4.609 15.021-8.94 4.523-4.04 4.803-4.154 3.345-1.355-.875 1.681-2.243 3.705-3.039 4.5-1.132 1.129-1.095 1.393.167 1.21.957-.139 1.167-.02.515.292-.604.288-1.436.395-1.848.233-.411-.161-3.745 1.01-7.409 2.602-3.663 1.592-7.049 2.631-7.522 2.31-.474-.322-2.056.78-3.514 2.448-1.46 1.668-3.311 3.308-4.113 3.644-1.09.456-.955.061.533-1.566 1.097-1.199 2.243-2.817 2.549-3.599 1-2.556-2.709-.574-4.63 2.474-.969 1.538-3.671 3.687-6.003 4.774s-3.487 1.525-2.568.972c1.725-1.038 6.876-8.046 6.512-8.858-.424-.941-4.899.107-5.349 1.254-1.5 3.83-10.424 9.241-16.173 9.806-2.751.27-2.292-.082 2.577-1.975 4.467-1.736 6.719-3.35 9.152-6.557l3.229-4.253-2.251-.882c-1.24-.485-2.604-.428-3.032.127-7.28 9.423-15.481 14.055-22.185 12.529-2.149-.489-5.2-.975-6.781-1.08-1.582-.104-2.813-.349-2.737-.542.075-.196 1.511-.472 3.19-.616zm38.589-9.585c.955-.407.638-.667-1.064-.877-1.384-.17-1.967.078-1.359.579.585.482 1.675.616 2.423.298zm106.56-350.32c4.654 1.663 11.686 8.448 14.185 13.691 1.344 2.817 2.194 6.895 2.106 10.097-.114 4.191.332 5.684 2.026 6.795 6.217 4.073 9.667 12.966 7.795 20.09l-1.229 4.677-.842-6.914c-1.003-8.242-3.283-14.142-5.855-15.149-3.225-1.263-6.194-5.791-4.863-7.417.677-.825.837-3.516.375-6.279-.853-5.09-6.163-12.266-13.261-17.917-3.411-2.714-3.417-2.739-.437-1.674zm8.724 1.79c8.673 5.468 12.547 11.732 13.503 21.833.296 3.121 1.19 6.083 1.987 6.583.799.5 1.589.558 1.757.129.803-2.051-3.287-16.071-5.611-19.229-1.442-1.961-2.353-3.682-2.021-3.823.331-.142 1.385.823 2.341 2.142.955 1.32 2.268 2.628 2.917 2.908.648.279 2.552 3.167 4.229 6.417 2.296 4.449 2.663 5.977 1.487 6.184-.986.173-1.296.625-.839 1.222.398.521 1.105.502 1.571-.042.464-.544 1.074 1.11 1.354 3.676.435 3.974.292 4.581-.959 4.091-.809-.316-1.079-.862-.602-1.214.478-.351.543-1.063.146-1.581-1.728-2.257-1.87 2.757-.153 5.429 2.785 4.338 4.554 13.429 3.251 16.707-1.018 2.563-1.201 2.186-2.164-4.442-1.366-9.418-2.952-13.165-7.172-16.951-2.736-2.455-3.536-4.071-3.856-7.792-.575-6.685-3.566-12.917-9.02-18.787-3.044-3.275-3.807-4.508-2.146-3.46zm-29.15 86.788c.478 2.246.006 3.452-.892 2.278-.392-.51-.433-1.618-.093-2.462.533-1.324.67-1.298.985.184zm55.42-49.789c5.381 8.007 7.883 17.167 5.911 21.648-.702 1.6-.806 1.466-.635-.83.113-1.506-.1-3.94-.471-5.41l-.675-2.672-1.301 3.14-1.302 3.139.264-4.122c.279-4.401-.424-9.045-2.108-13.907-1-2.891-.988-2.928.317-.986zm-107.6 303.63c1.667-1.37 2.92-2.157 2.784-1.747-.326.985-5.066 5.058-5.63 4.837-.608-.238-.566-.284 2.846-3.09z"/>
  <use xlink:href="#c" stroke-width="2"/>
  <use xlink:href="#c" stroke-width=".5"/>
</svg>